<svg xmlns="http://www.w3.org/2000/svg" xmlns:xlink="http://www.w3.org/1999/xlink" width="500" zoomAndPan="magnify" viewBox="0 0 375 225" height="300" preserveAspectRatio="xMidYMid meet" version="1.0"><defs><g/><clipPath id="e4aec4e870"><path d="M 8.425781 34 L 109 34 L 109 183 L 8.425781 183 Z M 8.425781 34 " clip-rule="nonzero"/></clipPath><clipPath id="f55fcc5181"><path d="M 9 185 L 125.128906 185 L 125.128906 210.179688 L 9 210.179688 Z M 9 185 " clip-rule="nonzero"/></clipPath></defs><g clip-path="url(#e4aec4e870)"><path fill="#3c4551" d="M 85.472656 46.984375 L 96.148438 53.46875 L 35.160156 153.910156 L 24.484375 147.429688 Z M 15.253906 181.75 L 35.953125 168.152344 C 37.480469 167.148438 38.761719 165.8125 39.707031 164.25 L 108.859375 50.363281 L 82.363281 34.277344 L 13.21875 148.167969 C 12.269531 149.730469 11.679688 151.480469 11.492188 153.296875 L 8.980469 177.9375 C 8.628906 181.34375 12.390625 183.632812 15.253906 181.75 " fill-opacity="1" fill-rule="nonzero"/></g><path fill="#0a66c2" d="M 118.625 34.269531 C 120.910156 30.511719 119.710938 25.625 115.957031 23.339844 L 103.058594 15.507812 C 99.304688 13.234375 94.414062 14.429688 92.128906 18.1875 L 87.164062 26.371094 L 113.660156 42.453125 L 118.625 34.269531 " fill-opacity="1" fill-rule="nonzero"/><g clip-path="url(#f55fcc5181)"><path fill="#0a66c2" d="M 124.539062 189.425781 L 124.539062 189.417969 C 123.292969 186.726562 120.34375 185.222656 117.449219 185.855469 C 111.648438 187.125 105.027344 186.535156 98.105469 185.933594 C 87.160156 184.960938 75.835938 183.964844 65.535156 189.9375 C 63.644531 191.03125 62.007812 192.253906 60.421875 193.425781 C 59.121094 194.402344 57.882812 195.316406 56.660156 196.039062 C 54.722656 197.1875 52.863281 197.667969 51.796875 197.300781 C 51.117188 197.0625 50.160156 196.320312 49.148438 195.539062 C 48.273438 194.859375 47.273438 194.09375 46.132812 193.394531 C 38.171875 188.484375 29.792969 190.566406 23.074219 192.234375 C 20.390625 192.902344 17.800781 193.550781 15.441406 193.738281 C 12.777344 193.953125 10.507812 195.746094 9.757812 198.308594 C 8.507812 202.574219 11.894531 206.8125 16.328125 206.472656 C 19.769531 206.207031 23.074219 205.386719 26.152344 204.621094 C 32.285156 203.097656 36.203125 202.265625 39.4375 204.257812 C 40.007812 204.609375 40.667969 205.117188 41.355469 205.652344 C 42.960938 206.886719 44.957031 208.421875 47.582031 209.34375 C 49.175781 209.902344 50.863281 210.179688 52.605469 210.179688 C 56.015625 210.179688 59.640625 209.113281 63.164062 207.03125 C 64.960938 205.964844 66.53125 204.796875 68.046875 203.667969 C 69.402344 202.660156 70.679688 201.707031 71.941406 200.980469 C 78.738281 197.035156 87.601562 197.8125 96.988281 198.640625 C 104.65625 199.316406 112.519531 200.007812 120.164062 198.339844 C 124.132812 197.46875 126.246094 193.109375 124.539062 189.425781 " fill-opacity="1" fill-rule="nonzero"/></g><g fill="#0a66c2" fill-opacity="1"><g transform="translate(104.648126, 197.417783)"><g><path d="M 14.703125 0 L 14.703125 -151.34375 L 75.453125 -151.34375 C 91.160156 -151.34375 103.160156 -147.703125 111.453125 -140.421875 C 119.742188 -133.140625 123.890625 -123.804688 123.890625 -112.421875 C 123.890625 -102.910156 121.328125 -95.304688 116.203125 -89.609375 C 111.085938 -83.921875 104.851562 -80.066406 97.5 -78.046875 C 106.15625 -76.316406 113.289062 -72.03125 118.90625 -65.1875 C 124.53125 -58.34375 127.34375 -50.378906 127.34375 -41.296875 C 127.34375 -29.328125 123.019531 -19.453125 114.375 -11.671875 C 105.726562 -3.890625 93.472656 0 77.609375 0 Z M 42.375 -87.78125 L 71.34375 -87.78125 C 79.125 -87.78125 85.101562 -89.582031 89.28125 -93.1875 C 93.46875 -96.789062 95.5625 -101.90625 95.5625 -108.53125 C 95.5625 -114.875 93.503906 -119.882812 89.390625 -123.5625 C 85.285156 -127.238281 79.128906 -129.078125 70.921875 -129.078125 L 42.375 -129.078125 Z M 42.375 -22.484375 L 73.296875 -22.484375 C 81.503906 -22.484375 87.878906 -24.390625 92.421875 -28.203125 C 96.960938 -32.023438 99.234375 -37.398438 99.234375 -44.328125 C 99.234375 -51.390625 96.851562 -56.9375 92.09375 -60.96875 C 87.34375 -65 80.929688 -67.015625 72.859375 -67.015625 L 42.375 -67.015625 Z M 42.375 -22.484375 "/></g></g></g><g fill="#0a66c2" fill-opacity="1"><g transform="translate(241.075978, 197.417783)"><g><path d="M 14.703125 0 L 14.703125 -151.34375 L 70.703125 -151.34375 C 82.804688 -151.34375 92.820312 -149.320312 100.75 -145.28125 C 108.675781 -141.25 114.582031 -135.703125 118.46875 -128.640625 C 122.363281 -121.578125 124.3125 -113.648438 124.3125 -104.859375 C 124.3125 -96.492188 122.4375 -88.816406 118.6875 -81.828125 C 114.945312 -74.835938 109.113281 -69.21875 101.1875 -64.96875 C 93.257812 -60.71875 83.097656 -58.59375 70.703125 -58.59375 L 42.375 -58.59375 L 42.375 0 Z M 42.375 -81.078125 L 68.96875 -81.078125 C 78.625 -81.078125 85.578125 -83.203125 89.828125 -87.453125 C 94.078125 -91.703125 96.203125 -97.503906 96.203125 -104.859375 C 96.203125 -112.347656 94.078125 -118.21875 89.828125 -122.46875 C 85.578125 -126.726562 78.625 -128.859375 68.96875 -128.859375 L 42.375 -128.859375 Z M 42.375 -81.078125 "/></g></g></g></svg>