<svg xmlns="http://www.w3.org/2000/svg" xmlns:xlink="http://www.w3.org/1999/xlink" width="783" zoomAndPan="magnify" viewBox="0 0 587.25 809.999971" height="1080" preserveAspectRatio="xMidYMid meet" version="1.0"><defs><g/><clipPath id="76819af75a"><path d="M 0 109 L 585.703125 109 L 585.703125 652 L 0 652 Z M 0 109 " clip-rule="nonzero"/></clipPath><clipPath id="c763bc6579"><path d="M 113.015625 182 L 148 182 L 148 216.609375 L 113.015625 216.609375 Z M 113.015625 182 " clip-rule="nonzero"/></clipPath><clipPath id="e24cfca0ea"><path d="M 147.054688 199.566406 C 147.054688 208.957031 139.4375 216.566406 130.046875 216.566406 C 120.65625 216.566406 113.042969 208.957031 113.042969 199.566406 C 113.042969 190.179688 120.65625 182.574219 130.046875 182.574219 C 139.4375 182.574219 147.054688 190.179688 147.054688 199.566406 Z M 147.054688 199.566406 " clip-rule="nonzero"/></clipPath><clipPath id="75397bb8d9"><path d="M 147.054688 199.566406 C 147.054688 208.957031 139.4375 216.566406 130.046875 216.566406 C 120.65625 216.566406 113.042969 208.957031 113.042969 199.566406 C 113.042969 190.179688 120.65625 182.574219 130.046875 182.574219 C 139.4375 182.574219 147.054688 190.179688 147.054688 199.566406 " clip-rule="nonzero"/></clipPath><clipPath id="b3e032a75f"><path d="M 96.089844 200.929688 L 131.40625 233.507812 L 164.007812 198.210938 L 128.691406 165.632812 Z M 96.089844 200.929688 " clip-rule="nonzero"/></clipPath><linearGradient x1="-0.367247" gradientTransform="matrix(23.069513, -24.976951, 24.991439, 23.056139, 122.217995, 208.042598)" y1="0" x2="1.045878" gradientUnits="userSpaceOnUse" y2="0" id="2e7819b1e2"><stop stop-opacity="1" stop-color="rgb(100%, 73.699951%, 31.399536%)" offset="0"/><stop stop-opacity="1" stop-color="rgb(100%, 73.699951%, 31.399536%)" offset="0.5"/><stop stop-opacity="1" stop-color="rgb(100%, 73.706055%, 31.40564%)" offset="0.53125"/><stop stop-opacity="1" stop-color="rgb(100%, 74.102783%, 31.802368%)" offset="0.535156"/><stop stop-opacity="1" stop-color="rgb(100%, 74.493408%, 32.192993%)" offset="0.539063"/><stop stop-opacity="1" stop-color="rgb(100%, 74.682617%, 32.345581%)" offset="0.546875"/><stop stop-opacity="1" stop-color="rgb(100%, 75.064087%, 32.699585%)" offset="0.550781"/><stop stop-opacity="1" stop-color="rgb(100%, 75.254822%, 32.899475%)" offset="0.554688"/><stop stop-opacity="1" stop-color="rgb(100%, 75.276184%, 33.267212%)" offset="0.558594"/><stop stop-opacity="1" stop-color="rgb(100%, 75.299072%, 33.636475%)" offset="0.5625"/><stop stop-opacity="1" stop-color="rgb(100%, 75.508118%, 33.866882%)" offset="0.566406"/><stop stop-opacity="1" stop-color="rgb(100%, 75.718689%, 34.098816%)" offset="0.570312"/><stop stop-opacity="1" stop-color="rgb(100%, 75.907898%, 34.298706%)" offset="0.574219"/><stop stop-opacity="1" stop-color="rgb(100%, 76.098633%, 34.498596%)" offset="0.578125"/><stop stop-opacity="1" stop-color="rgb(100%, 76.298523%, 34.689331%)" offset="0.582031"/><stop stop-opacity="1" stop-color="rgb(100%, 76.499939%, 34.880066%)" offset="0.585938"/><stop stop-opacity="1" stop-color="rgb(100%, 76.699829%, 35.089111%)" offset="0.589844"/><stop stop-opacity="1" stop-color="rgb(100%, 76.899719%, 35.299683%)" offset="0.59375"/><stop stop-opacity="1" stop-color="rgb(100%, 77.099609%, 35.499573%)" offset="0.597656"/><stop stop-opacity="1" stop-color="rgb(100%, 77.2995%, 35.699463%)" offset="0.601562"/><stop stop-opacity="1" stop-color="rgb(100%, 77.449036%, 35.91156%)" offset="0.605469"/><stop stop-opacity="1" stop-color="rgb(100%, 77.598572%, 36.125183%)" offset="0.609375"/><stop stop-opacity="1" stop-color="rgb(100%, 77.798462%, 36.51123%)" offset="0.613281"/><stop stop-opacity="1" stop-color="rgb(100%, 77.999878%, 36.898804%)" offset="0.617188"/><stop stop-opacity="1" stop-color="rgb(100%, 78.193665%, 37.09259%)" offset="0.625"/><stop stop-opacity="1" stop-color="rgb(100%, 78.578186%, 37.431335%)" offset="0.632812"/><stop stop-opacity="1" stop-color="rgb(100%, 78.959656%, 37.762451%)" offset="0.640625"/><stop stop-opacity="1" stop-color="rgb(100%, 79.374695%, 38.189697%)" offset="0.644531"/><stop stop-opacity="1" stop-color="rgb(100%, 79.598999%, 38.430786%)" offset="0.648438"/><stop stop-opacity="1" stop-color="rgb(100%, 79.605103%, 38.621521%)" offset="0.65625"/><stop stop-opacity="1" stop-color="rgb(100%, 79.804993%, 39.006042%)" offset="0.664063"/><stop stop-opacity="1" stop-color="rgb(100%, 80.198669%, 39.587402%)" offset="0.667969"/><stop stop-opacity="1" stop-color="rgb(100%, 80.39856%, 39.974976%)" offset="0.671875"/><stop stop-opacity="1" stop-color="rgb(100%, 80.59845%, 40.16571%)" offset="0.675781"/><stop stop-opacity="1" stop-color="rgb(100%, 80.799866%, 40.356445%)" offset="0.679688"/><stop stop-opacity="1" stop-color="rgb(100%, 80.999756%, 40.54718%)" offset="0.683594"/><stop stop-opacity="1" stop-color="rgb(100%, 81.199646%, 40.737915%)" offset="0.6875"/><stop stop-opacity="1" stop-color="rgb(100%, 81.399536%, 40.968323%)" offset="0.691406"/><stop stop-opacity="1" stop-color="rgb(100%, 81.599426%, 41.19873%)" offset="0.695312"/><stop stop-opacity="1" stop-color="rgb(100%, 81.799316%, 41.398621%)" offset="0.699219"/><stop stop-opacity="1" stop-color="rgb(100%, 81.999207%, 41.600037%)" offset="0.703125"/><stop stop-opacity="1" stop-color="rgb(100%, 82.189941%, 41.799927%)" offset="0.707031"/><stop stop-opacity="1" stop-color="rgb(100%, 82.382202%, 41.999817%)" offset="0.710938"/><stop stop-opacity="1" stop-color="rgb(100%, 82.527161%, 42.199707%)" offset="0.714844"/><stop stop-opacity="1" stop-color="rgb(100%, 82.672119%, 42.399597%)" offset="0.71875"/><stop stop-opacity="1" stop-color="rgb(100%, 82.858276%, 42.549133%)" offset="0.726562"/><stop stop-opacity="1" stop-color="rgb(100%, 83.27179%, 43.09845%)" offset="0.730469"/><stop stop-opacity="1" stop-color="rgb(100%, 83.499146%, 43.499756%)" offset="0.734375"/><stop stop-opacity="1" stop-color="rgb(100%, 83.502197%, 43.699646%)" offset="0.738281"/><stop stop-opacity="1" stop-color="rgb(100%, 83.506775%, 43.899536%)" offset="0.742188"/><stop stop-opacity="1" stop-color="rgb(100%, 83.702087%, 44.093323%)" offset="0.746094"/><stop stop-opacity="1" stop-color="rgb(100%, 83.898926%, 44.288635%)" offset="0.75"/><stop stop-opacity="1" stop-color="rgb(100%, 84.098816%, 44.47937%)" offset="0.753906"/><stop stop-opacity="1" stop-color="rgb(100%, 84.298706%, 44.670105%)" offset="0.757813"/><stop stop-opacity="1" stop-color="rgb(100%, 84.498596%, 44.86084%)" offset="0.761719"/><stop stop-opacity="1" stop-color="rgb(100%, 84.698486%, 45.051575%)" offset="0.765625"/><stop stop-opacity="1" stop-color="rgb(100%, 84.898376%, 45.291138%)" offset="0.769531"/><stop stop-opacity="1" stop-color="rgb(100%, 85.099792%, 45.532227%)" offset="0.773438"/><stop stop-opacity="1" stop-color="rgb(100%, 85.299683%, 45.722961%)" offset="0.777344"/><stop stop-opacity="1" stop-color="rgb(100%, 85.499573%, 45.913696%)" offset="0.78125"/><stop stop-opacity="1" stop-color="rgb(100%, 85.696411%, 46.105957%)" offset="0.785156"/><stop stop-opacity="1" stop-color="rgb(100%, 85.894775%, 46.299744%)" offset="0.789063"/><stop stop-opacity="1" stop-color="rgb(100%, 86.08551%, 46.499634%)" offset="0.792969"/><stop stop-opacity="1" stop-color="rgb(100%, 86.276245%, 46.699524%)" offset="0.796875"/><stop stop-opacity="1" stop-color="rgb(100%, 86.46698%, 46.899414%)" offset="0.800781"/><stop stop-opacity="1" stop-color="rgb(100%, 86.657715%, 47.099304%)" offset="0.804688"/><stop stop-opacity="1" stop-color="rgb(100%, 86.677551%, 47.425842%)" offset="0.808594"/><stop stop-opacity="1" stop-color="rgb(100%, 86.698914%, 47.753906%)" offset="0.8125"/><stop stop-opacity="1" stop-color="rgb(100%, 86.909485%, 47.976685%)" offset="0.816406"/><stop stop-opacity="1" stop-color="rgb(100%, 87.120056%, 48.199463%)" offset="0.820312"/><stop stop-opacity="1" stop-color="rgb(100%, 87.310791%, 48.399353%)" offset="0.824219"/><stop stop-opacity="1" stop-color="rgb(100%, 87.501526%, 48.599243%)" offset="0.828125"/><stop stop-opacity="1" stop-color="rgb(100%, 87.649536%, 48.789978%)" offset="0.835938"/><stop stop-opacity="1" stop-color="rgb(100%, 87.980652%, 49.172974%)" offset="0.84375"/><stop stop-opacity="1" stop-color="rgb(100%, 88.354492%, 49.554443%)" offset="0.851562"/><stop stop-opacity="1" stop-color="rgb(100%, 88.772583%, 49.986267%)" offset="0.855469"/><stop stop-opacity="1" stop-color="rgb(100%, 88.999939%, 50.227356%)" offset="0.859375"/><stop stop-opacity="1" stop-color="rgb(100%, 89.002991%, 50.418091%)" offset="0.867188"/><stop stop-opacity="1" stop-color="rgb(100%, 89.202881%, 50.804138%)" offset="0.871094"/><stop stop-opacity="1" stop-color="rgb(100%, 89.399719%, 50.999451%)" offset="0.875"/><stop stop-opacity="1" stop-color="rgb(100%, 89.599609%, 51.199341%)" offset="0.878906"/><stop stop-opacity="1" stop-color="rgb(100%, 89.7995%, 51.399231%)" offset="0.882813"/><stop stop-opacity="1" stop-color="rgb(100%, 89.99939%, 51.599121%)" offset="0.886719"/><stop stop-opacity="1" stop-color="rgb(100%, 90.19928%, 51.799011%)" offset="0.890625"/><stop stop-opacity="1" stop-color="rgb(100%, 90.39917%, 52.005005%)" offset="0.894531"/><stop stop-opacity="1" stop-color="rgb(100%, 90.59906%, 52.212524%)" offset="0.898438"/><stop stop-opacity="1" stop-color="rgb(100%, 90.602112%, 52.359009%)" offset="0.90625"/><stop stop-opacity="1" stop-color="rgb(100%, 90.802002%, 52.702332%)" offset="0.914062"/><stop stop-opacity="1" stop-color="rgb(100%, 91.192627%, 53.092957%)" offset="0.921875"/><stop stop-opacity="1" stop-color="rgb(100%, 91.392517%, 53.292847%)" offset="0.9375"/><stop stop-opacity="1" stop-color="rgb(100%, 91.398621%, 53.29895%)" offset="1"/></linearGradient><clipPath id="740caafd6b"><path d="M 66.484375 422.402344 L 118.433594 422.402344 L 118.433594 471.21875 L 66.484375 471.21875 Z M 66.484375 422.402344 " clip-rule="nonzero"/></clipPath><clipPath id="1651cbea21"><path d="M 116.554688 425.148438 C 116.421875 423.59375 115.125 422.402344 113.558594 422.402344 L 71.359375 422.402344 C 69.796875 422.402344 68.496094 423.59375 68.367188 425.148438 L 66.484375 446.289062 L 66.484375 449.320312 C 66.484375 460.832031 75.828125 471.21875 87.347656 471.21875 L 97.570312 471.21875 C 109.09375 471.21875 118.433594 460.832031 118.433594 449.320312 L 118.433594 446.289062 Z M 116.554688 425.148438 " clip-rule="nonzero"/></clipPath><clipPath id="a7bf810386"><path d="M 116.554688 425.148438 C 116.421875 423.59375 115.125 422.402344 113.558594 422.402344 L 71.359375 422.402344 C 69.796875 422.402344 68.496094 423.59375 68.367188 425.148438 L 66.484375 446.289062 L 66.484375 449.320312 C 66.484375 460.832031 75.828125 471.21875 87.347656 471.21875 L 97.570312 471.21875 C 109.09375 471.21875 118.433594 460.832031 118.433594 449.320312 L 118.433594 446.289062 L 116.554688 425.148438 " clip-rule="nonzero"/></clipPath><linearGradient x1="-0.000071816" gradientTransform="matrix(51.943339, 0, 0, 51.913227, 66.489616, 446.807611)" y1="0" x2="1.000033" gradientUnits="userSpaceOnUse" y2="0" id="381b18cbd6"><stop stop-opacity="1" stop-color="rgb(100%, 73.699951%, 31.399536%)" offset="0"/><stop stop-opacity="1" stop-color="rgb(100%, 73.699951%, 31.399536%)" offset="0.25"/><stop stop-opacity="1" stop-color="rgb(100%, 73.699951%, 31.399536%)" offset="0.375"/><stop stop-opacity="1" stop-color="rgb(100%, 73.88916%, 31.588745%)" offset="0.390625"/><stop stop-opacity="1" stop-color="rgb(100%, 74.28894%, 31.996155%)" offset="0.394531"/><stop stop-opacity="1" stop-color="rgb(100%, 74.499512%, 32.214355%)" offset="0.398438"/><stop stop-opacity="1" stop-color="rgb(100%, 74.504089%, 32.362366%)" offset="0.40625"/><stop stop-opacity="1" stop-color="rgb(100%, 74.705505%, 32.705688%)" offset="0.414062"/><stop stop-opacity="1" stop-color="rgb(100%, 75.09613%, 33.096313%)" offset="0.421875"/><stop stop-opacity="1" stop-color="rgb(100%, 75.482178%, 33.482361%)" offset="0.4375"/><stop stop-opacity="1" stop-color="rgb(100%, 75.88501%, 33.892822%)" offset="0.441406"/><stop stop-opacity="1" stop-color="rgb(100%, 76.098633%, 34.114075%)" offset="0.445313"/><stop stop-opacity="1" stop-color="rgb(100%, 76.101685%, 34.309387%)" offset="0.453125"/><stop stop-opacity="1" stop-color="rgb(100%, 76.300049%, 34.700012%)" offset="0.460938"/><stop stop-opacity="1" stop-color="rgb(100%, 76.690674%, 34.896851%)" offset="0.46875"/><stop stop-opacity="1" stop-color="rgb(100%, 76.89209%, 35.087585%)" offset="0.476562"/><stop stop-opacity="1" stop-color="rgb(100%, 77.105713%, 35.496521%)" offset="0.480469"/><stop stop-opacity="1" stop-color="rgb(100%, 77.313232%, 35.716248%)" offset="0.484375"/><stop stop-opacity="1" stop-color="rgb(100%, 77.455139%, 35.91156%)" offset="0.492188"/><stop stop-opacity="1" stop-color="rgb(100%, 77.598572%, 36.302185%)" offset="0.496094"/><stop stop-opacity="1" stop-color="rgb(100%, 77.598572%, 36.499023%)" offset="0.5"/><stop stop-opacity="1" stop-color="rgb(100%, 77.793884%, 36.499023%)" offset="0.507812"/><stop stop-opacity="1" stop-color="rgb(100%, 77.993774%, 36.688232%)" offset="0.515625"/><stop stop-opacity="1" stop-color="rgb(100%, 78.210449%, 37.097168%)" offset="0.519531"/><stop stop-opacity="1" stop-color="rgb(100%, 78.421021%, 37.315369%)" offset="0.523438"/><stop stop-opacity="1" stop-color="rgb(100%, 78.610229%, 37.463379%)" offset="0.53125"/><stop stop-opacity="1" stop-color="rgb(100%, 78.799438%, 37.806702%)" offset="0.539062"/><stop stop-opacity="1" stop-color="rgb(100%, 78.996277%, 38.197327%)" offset="0.546875"/><stop stop-opacity="1" stop-color="rgb(100%, 79.386902%, 38.395691%)" offset="0.554688"/><stop stop-opacity="1" stop-color="rgb(100%, 79.589844%, 38.586426%)" offset="0.5625"/><stop stop-opacity="1" stop-color="rgb(100%, 79.806519%, 38.993835%)" offset="0.566406"/><stop stop-opacity="1" stop-color="rgb(100%, 80.014038%, 39.213562%)" offset="0.570312"/><stop stop-opacity="1" stop-color="rgb(100%, 80.206299%, 39.408875%)" offset="0.578125"/><stop stop-opacity="1" stop-color="rgb(100%, 80.39856%, 39.7995%)" offset="0.582031"/><stop stop-opacity="1" stop-color="rgb(100%, 80.39856%, 39.996338%)" offset="0.585938"/><stop stop-opacity="1" stop-color="rgb(100%, 80.592346%, 39.997864%)" offset="0.59375"/><stop stop-opacity="1" stop-color="rgb(100%, 80.981445%, 40.187073%)" offset="0.601562"/><stop stop-opacity="1" stop-color="rgb(100%, 81.196594%, 40.596008%)" offset="0.605469"/><stop stop-opacity="1" stop-color="rgb(100%, 81.217957%, 40.817261%)" offset="0.609375"/><stop stop-opacity="1" stop-color="rgb(100%, 81.413269%, 41.012573%)" offset="0.617188"/><stop stop-opacity="1" stop-color="rgb(100%, 81.803894%, 41.403198%)" offset="0.625"/><stop stop-opacity="1" stop-color="rgb(100%, 82.189941%, 41.789246%)" offset="0.640625"/><stop stop-opacity="1" stop-color="rgb(100%, 82.397461%, 42.196655%)" offset="0.644531"/><stop stop-opacity="1" stop-color="rgb(100%, 82.415771%, 42.414856%)" offset="0.648438"/><stop stop-opacity="1" stop-color="rgb(100%, 82.563782%, 42.562866%)" offset="0.65625"/><stop stop-opacity="1" stop-color="rgb(100%, 82.905579%, 42.904663%)" offset="0.671875"/><stop stop-opacity="1" stop-color="rgb(100%, 83.291626%, 43.29071%)" offset="0.679688"/><stop stop-opacity="1" stop-color="rgb(100%, 83.679199%, 43.678284%)" offset="0.6875"/><stop stop-opacity="1" stop-color="rgb(100%, 83.894348%, 44.085693%)" offset="0.691406"/><stop stop-opacity="1" stop-color="rgb(100%, 83.914185%, 44.299316%)" offset="0.695312"/><stop stop-opacity="1" stop-color="rgb(100%, 84.109497%, 44.302368%)" offset="0.699219"/><stop stop-opacity="1" stop-color="rgb(100%, 84.306335%, 44.30542%)" offset="0.703125"/><stop stop-opacity="1" stop-color="rgb(100%, 84.501648%, 44.500732%)" offset="0.710938"/><stop stop-opacity="1" stop-color="rgb(100%, 84.69696%, 44.891357%)" offset="0.71875"/><stop stop-opacity="1" stop-color="rgb(100%, 84.887695%, 45.281982%)" offset="0.726562"/><stop stop-opacity="1" stop-color="rgb(100%, 85.096741%, 45.687866%)" offset="0.730469"/><stop stop-opacity="1" stop-color="rgb(100%, 85.118103%, 45.899963%)" offset="0.734375"/><stop stop-opacity="1" stop-color="rgb(100%, 85.313416%, 45.904541%)" offset="0.742188"/><stop stop-opacity="1" stop-color="rgb(100%, 85.704041%, 46.104431%)" offset="0.75"/><stop stop-opacity="1" stop-color="rgb(100%, 85.899353%, 46.495056%)" offset="0.757812"/><stop stop-opacity="1" stop-color="rgb(100%, 86.090088%, 46.885681%)" offset="0.765625"/><stop stop-opacity="1" stop-color="rgb(100%, 86.489868%, 47.10083%)" offset="0.769531"/><stop stop-opacity="1" stop-color="rgb(100%, 86.698914%, 47.122192%)" offset="0.773438"/><stop stop-opacity="1" stop-color="rgb(100%, 86.705017%, 47.314453%)" offset="0.78125"/><stop stop-opacity="1" stop-color="rgb(100%, 86.904907%, 47.654724%)" offset="0.789062"/><stop stop-opacity="1" stop-color="rgb(100%, 87.098694%, 47.998047%)" offset="0.796875"/><stop stop-opacity="1" stop-color="rgb(100%, 87.290955%, 48.388672%)" offset="0.804688"/><stop stop-opacity="1" stop-color="rgb(100%, 87.632751%, 48.591614%)" offset="0.8125"/><stop stop-opacity="1" stop-color="rgb(100%, 87.797546%, 48.806763%)" offset="0.816406"/><stop stop-opacity="1" stop-color="rgb(100%, 87.815857%, 49.015808%)" offset="0.820312"/><stop stop-opacity="1" stop-color="rgb(100%, 88.006592%, 49.211121%)" offset="0.828125"/><stop stop-opacity="1" stop-color="rgb(100%, 88.198853%, 49.601746%)" offset="0.835938"/><stop stop-opacity="1" stop-color="rgb(100%, 88.392639%, 49.797058%)" offset="0.84375"/><stop stop-opacity="1" stop-color="rgb(100%, 88.783264%, 49.987793%)" offset="0.851562"/><stop stop-opacity="1" stop-color="rgb(100%, 88.998413%, 50.398254%)" offset="0.855469"/><stop stop-opacity="1" stop-color="rgb(100%, 89.01825%, 50.619507%)" offset="0.859375"/><stop stop-opacity="1" stop-color="rgb(100%, 89.208984%, 50.810242%)" offset="0.875"/><stop stop-opacity="1" stop-color="rgb(100%, 89.595032%, 51.196289%)" offset="0.882812"/><stop stop-opacity="1" stop-color="rgb(100%, 89.985657%, 51.586914%)" offset="0.890625"/><stop stop-opacity="1" stop-color="rgb(100%, 90.200806%, 51.802063%)" offset="0.898438"/><stop stop-opacity="1" stop-color="rgb(100%, 90.409851%, 52.015686%)" offset="0.90625"/><stop stop-opacity="1" stop-color="rgb(100%, 90.600586%, 52.355957%)" offset="0.914062"/><stop stop-opacity="1" stop-color="rgb(100%, 90.79895%, 52.69928%)" offset="0.921875"/><stop stop-opacity="1" stop-color="rgb(100%, 91.184998%, 53.085327%)" offset="0.9375"/><stop stop-opacity="1" stop-color="rgb(100%, 91.386414%, 53.286743%)" offset="1"/></linearGradient><clipPath id="8c4ac093b6"><path d="M 360.039062 299 L 461.757812 299 L 461.757812 562.246094 L 360.039062 562.246094 Z M 360.039062 299 " clip-rule="nonzero"/></clipPath><clipPath id="bfc21bdcac"><path d="M 372.929688 491.304688 C 384.390625 496.949219 387.507812 548.507812 434.203125 562.246094 C 477.710938 498.578125 460.121094 384.171875 442.582031 337.984375 C 430.703125 306.6875 416.320312 293.289062 399.09375 302.917969 C 380.050781 313.550781 364.765625 357.195312 363.261719 363.492188 C 351.816406 411.359375 385.035156 437.1875 384.542969 460.28125 C 383.988281 485.953125 375.679688 480.886719 371.929688 488.054688 C 371.3125 489.230469 371.738281 490.71875 372.929688 491.304688 Z M 372.929688 491.304688 " clip-rule="nonzero"/></clipPath><clipPath id="8ec0475c32"><path d="M 372.929688 491.304688 C 384.390625 496.949219 387.507812 548.507812 434.203125 562.246094 C 477.710938 498.578125 460.121094 384.171875 442.582031 337.984375 C 430.703125 306.6875 416.320312 293.289062 399.09375 302.917969 C 380.050781 313.550781 364.765625 357.195312 363.261719 363.492188 C 351.816406 411.359375 385.035156 437.1875 384.542969 460.28125 C 383.988281 485.953125 375.679688 480.886719 371.929688 488.054688 C 371.3125 489.230469 371.738281 490.71875 372.929688 491.304688 " clip-rule="nonzero"/></clipPath><linearGradient x1="-0.00817267" gradientTransform="matrix(100.552511, 0, 0, 100.494214, 360.862219, 431.047649)" y1="0" x2="1.003393" gradientUnits="userSpaceOnUse" y2="0" id="014543df5a"><stop stop-opacity="1" stop-color="rgb(100%, 73.699951%, 31.399536%)" offset="0"/><stop stop-opacity="1" stop-color="rgb(100%, 73.699951%, 31.399536%)" offset="0.25"/><stop stop-opacity="1" stop-color="rgb(100%, 73.699951%, 31.399536%)" offset="0.375"/><stop stop-opacity="1" stop-color="rgb(100%, 73.699951%, 31.399536%)" offset="0.382813"/><stop stop-opacity="1" stop-color="rgb(100%, 73.899841%, 31.697083%)" offset="0.386719"/><stop stop-opacity="1" stop-color="rgb(100%, 74.099731%, 31.996155%)" offset="0.390625"/><stop stop-opacity="1" stop-color="rgb(100%, 74.299622%, 32.107544%)" offset="0.394531"/><stop stop-opacity="1" stop-color="rgb(100%, 74.499512%, 32.220459%)" offset="0.398438"/><stop stop-opacity="1" stop-color="rgb(100%, 74.499512%, 32.359314%)" offset="0.40625"/><stop stop-opacity="1" stop-color="rgb(100%, 74.699402%, 32.699585%)" offset="0.410156"/><stop stop-opacity="1" stop-color="rgb(100%, 74.899292%, 32.899475%)" offset="0.414062"/><stop stop-opacity="1" stop-color="rgb(100%, 75.099182%, 33.099365%)" offset="0.417969"/><stop stop-opacity="1" stop-color="rgb(100%, 75.299072%, 33.299255%)" offset="0.421875"/><stop stop-opacity="1" stop-color="rgb(100%, 75.42572%, 33.425903%)" offset="0.429688"/><stop stop-opacity="1" stop-color="rgb(100%, 75.62561%, 33.666992%)" offset="0.4375"/><stop stop-opacity="1" stop-color="rgb(100%, 75.856018%, 33.940125%)" offset="0.445312"/><stop stop-opacity="1" stop-color="rgb(100%, 76.12915%, 34.298706%)" offset="0.449219"/><stop stop-opacity="1" stop-color="rgb(100%, 76.245117%, 34.498596%)" offset="0.453125"/><stop stop-opacity="1" stop-color="rgb(100%, 76.371765%, 34.687805%)" offset="0.460938"/><stop stop-opacity="1" stop-color="rgb(100%, 76.654053%, 35.041809%)" offset="0.46875"/><stop stop-opacity="1" stop-color="rgb(100%, 76.922607%, 35.322571%)" offset="0.476563"/><stop stop-opacity="1" stop-color="rgb(100%, 77.168274%, 35.568237%)" offset="0.484375"/><stop stop-opacity="1" stop-color="rgb(100%, 77.374268%, 35.899353%)" offset="0.488281"/><stop stop-opacity="1" stop-color="rgb(100%, 77.450562%, 36.099243%)" offset="0.492188"/><stop stop-opacity="1" stop-color="rgb(100%, 77.542114%, 36.299133%)" offset="0.496094"/><stop stop-opacity="1" stop-color="rgb(100%, 77.633667%, 36.499023%)" offset="0.5"/><stop stop-opacity="1" stop-color="rgb(100%, 77.816772%, 36.631775%)" offset="0.507813"/><stop stop-opacity="1" stop-color="rgb(100%, 78.097534%, 36.929321%)" offset="0.515625"/><stop stop-opacity="1" stop-color="rgb(100%, 78.311157%, 37.207031%)" offset="0.523438"/><stop stop-opacity="1" stop-color="rgb(100%, 78.613281%, 37.458801%)" offset="0.53125"/><stop stop-opacity="1" stop-color="rgb(100%, 78.999329%, 37.799072%)" offset="0.535156"/><stop stop-opacity="1" stop-color="rgb(100%, 79.199219%, 37.998962%)" offset="0.539062"/><stop stop-opacity="1" stop-color="rgb(100%, 79.199219%, 38.15918%)" offset="0.546875"/><stop stop-opacity="1" stop-color="rgb(100%, 79.399109%, 38.435364%)" offset="0.550781"/><stop stop-opacity="1" stop-color="rgb(100%, 79.598999%, 38.551331%)" offset="0.554688"/><stop stop-opacity="1" stop-color="rgb(100%, 79.789734%, 38.674927%)" offset="0.5625"/><stop stop-opacity="1" stop-color="rgb(100%, 79.989624%, 38.998413%)" offset="0.566406"/><stop stop-opacity="1" stop-color="rgb(100%, 79.998779%, 39.199829%)" offset="0.570312"/><stop stop-opacity="1" stop-color="rgb(100%, 80.198669%, 39.399719%)" offset="0.574219"/><stop stop-opacity="1" stop-color="rgb(100%, 80.39856%, 39.599609%)" offset="0.578125"/><stop stop-opacity="1" stop-color="rgb(100%, 80.587769%, 39.787292%)" offset="0.585938"/><stop stop-opacity="1" stop-color="rgb(100%, 80.787659%, 40.090942%)" offset="0.59375"/><stop stop-opacity="1" stop-color="rgb(100%, 80.999756%, 40.322876%)" offset="0.597656"/><stop stop-opacity="1" stop-color="rgb(100%, 81.199646%, 40.438843%)" offset="0.601562"/><stop stop-opacity="1" stop-color="rgb(100%, 81.333923%, 40.618896%)" offset="0.609375"/><stop stop-opacity="1" stop-color="rgb(100%, 81.533813%, 40.99884%)" offset="0.613281"/><stop stop-opacity="1" stop-color="rgb(100%, 81.599426%, 41.19873%)" offset="0.617188"/><stop stop-opacity="1" stop-color="rgb(100%, 81.607056%, 41.20636%)" offset="0.625"/><stop stop-opacity="1" stop-color="rgb(100%, 81.773376%, 41.372681%)" offset="0.632812"/><stop stop-opacity="1" stop-color="rgb(100%, 82.089233%, 41.688538%)" offset="0.640625"/><stop stop-opacity="1" stop-color="rgb(100%, 82.383728%, 42.004395%)" offset="0.648438"/><stop stop-opacity="1" stop-color="rgb(100%, 82.649231%, 42.311096%)" offset="0.65625"/><stop stop-opacity="1" stop-color="rgb(100%, 82.936096%, 42.576599%)" offset="0.664062"/><stop stop-opacity="1" stop-color="rgb(100%, 83.096313%, 42.874146%)" offset="0.671875"/><stop stop-opacity="1" stop-color="rgb(100%, 83.236694%, 43.214417%)" offset="0.679688"/><stop stop-opacity="1" stop-color="rgb(100%, 83.532715%, 43.531799%)" offset="0.6875"/><stop stop-opacity="1" stop-color="rgb(100%, 83.848572%, 43.847656%)" offset="0.695312"/><stop stop-opacity="1" stop-color="rgb(100%, 84.162903%, 44.163513%)" offset="0.703125"/><stop stop-opacity="1" stop-color="rgb(100%, 84.47876%, 44.47937%)" offset="0.710938"/><stop stop-opacity="1" stop-color="rgb(100%, 84.667969%, 44.813538%)" offset="0.71875"/><stop stop-opacity="1" stop-color="rgb(100%, 84.80835%, 45.153809%)" offset="0.726562"/><stop stop-opacity="1" stop-color="rgb(100%, 85.075378%, 45.475769%)" offset="0.734375"/><stop stop-opacity="1" stop-color="rgb(100%, 85.391235%, 45.791626%)" offset="0.742188"/><stop stop-opacity="1" stop-color="rgb(100%, 85.707092%, 46.107483%)" offset="0.75"/><stop stop-opacity="1" stop-color="rgb(100%, 85.882568%, 46.42334%)" offset="0.757812"/><stop stop-opacity="1" stop-color="rgb(100%, 85.997009%, 46.737671%)" offset="0.765625"/><stop stop-opacity="1" stop-color="rgb(100%, 86.262512%, 47.062683%)" offset="0.773438"/><stop stop-opacity="1" stop-color="rgb(100%, 86.602783%, 47.393799%)" offset="0.78125"/><stop stop-opacity="1" stop-color="rgb(100%, 86.935425%, 47.676086%)" offset="0.789062"/><stop stop-opacity="1" stop-color="rgb(100%, 87.251282%, 47.952271%)" offset="0.796875"/><stop stop-opacity="1" stop-color="rgb(100%, 87.454224%, 48.266602%)" offset="0.804688"/><stop stop-opacity="1" stop-color="rgb(100%, 87.55188%, 48.582458%)" offset="0.8125"/><stop stop-opacity="1" stop-color="rgb(100%, 87.734985%, 48.902893%)" offset="0.820313"/><stop stop-opacity="1" stop-color="rgb(100%, 88.043213%, 49.243164%)" offset="0.828125"/><stop stop-opacity="1" stop-color="rgb(100%, 88.378906%, 49.578857%)" offset="0.835938"/><stop stop-opacity="1" stop-color="rgb(100%, 88.568115%, 49.894714%)" offset="0.84375"/><stop stop-opacity="1" stop-color="rgb(100%, 88.682556%, 50.210571%)" offset="0.851563"/><stop stop-opacity="1" stop-color="rgb(100%, 88.925171%, 50.526428%)" offset="0.859375"/><stop stop-opacity="1" stop-color="rgb(100%, 89.241028%, 50.840759%)" offset="0.867188"/><stop stop-opacity="1" stop-color="rgb(100%, 89.579773%, 51.179504%)" offset="0.875"/><stop stop-opacity="1" stop-color="rgb(100%, 89.877319%, 51.478577%)" offset="0.890625"/><stop stop-opacity="1" stop-color="rgb(100%, 90.153503%, 51.753235%)" offset="0.898438"/><stop stop-opacity="1" stop-color="rgb(100%, 90.455627%, 52.06604%)" offset="0.90625"/><stop stop-opacity="1" stop-color="rgb(100%, 90.59906%, 52.337646%)" offset="0.914062"/><stop stop-opacity="1" stop-color="rgb(100%, 90.72876%, 52.607727%)" offset="0.921875"/><stop stop-opacity="1" stop-color="rgb(100%, 90.960693%, 52.861023%)" offset="0.9375"/><stop stop-opacity="1" stop-color="rgb(100%, 91.22467%, 53.125%)" offset="1"/></linearGradient><clipPath id="e5448abfd6"><path d="M 382 318.265625 L 437 318.265625 L 437 424.765625 L 382 424.765625 Z M 382 318.265625 " clip-rule="nonzero"/></clipPath><clipPath id="8f314935a6"><path d="M 434.351562 421.714844 C 435.726562 404.847656 440.863281 369.792969 428.386719 335.171875 C 427.070312 331.523438 421.714844 322.445312 411.574219 319.699219 C 397.660156 315.933594 386.882812 326.09375 384.023438 341.574219 C 380.550781 360.390625 382.144531 404.757812 386.984375 422.84375 C 397.875 424.777344 417.386719 426.039062 434.351562 421.714844 Z M 434.351562 421.714844 " clip-rule="nonzero"/></clipPath><clipPath id="5397850e02"><path d="M 434.351562 421.714844 C 435.726562 404.847656 440.863281 369.792969 428.386719 335.171875 C 427.070312 331.523438 421.714844 322.445312 411.574219 319.699219 C 397.660156 315.933594 386.882812 326.09375 384.023438 341.574219 C 380.550781 360.390625 382.144531 404.757812 386.984375 422.84375 C 397.875 424.777344 417.386719 426.039062 434.351562 421.714844 " clip-rule="nonzero"/></clipPath><clipPath id="f59434f551"><path d="M 413.023438 456.089844 L 495.78125 366.757812 L 408.386719 285.882812 L 325.628906 375.214844 Z M 413.023438 456.089844 " clip-rule="nonzero"/></clipPath><linearGradient x1="-0.0645197" gradientTransform="matrix(-72.278799, -66.882744, 66.921543, -72.23689, 442.795538, 409.739962)" y1="0" x2="1.09139" gradientUnits="userSpaceOnUse" y2="0" id="ed02125a4c"><stop stop-opacity="1" stop-color="rgb(100%, 73.699951%, 31.399536%)" offset="0"/><stop stop-opacity="1" stop-color="rgb(100%, 73.699951%, 31.399536%)" offset="0.25"/><stop stop-opacity="1" stop-color="rgb(100%, 73.861694%, 31.561279%)" offset="0.3125"/><stop stop-opacity="1" stop-color="rgb(100%, 74.209595%, 31.90918%)" offset="0.320313"/><stop stop-opacity="1" stop-color="rgb(100%, 74.447632%, 32.249451%)" offset="0.328125"/><stop stop-opacity="1" stop-color="rgb(100%, 74.621582%, 32.572937%)" offset="0.335938"/><stop stop-opacity="1" stop-color="rgb(100%, 74.945068%, 32.945251%)" offset="0.339844"/><stop stop-opacity="1" stop-color="rgb(100%, 75.14801%, 33.148193%)" offset="0.34375"/><stop stop-opacity="1" stop-color="rgb(100%, 75.222778%, 33.343506%)" offset="0.347656"/><stop stop-opacity="1" stop-color="rgb(100%, 75.299072%, 33.540344%)" offset="0.351563"/><stop stop-opacity="1" stop-color="rgb(100%, 75.405884%, 33.61969%)" offset="0.359375"/><stop stop-opacity="1" stop-color="rgb(100%, 75.700378%, 33.792114%)" offset="0.367188"/><stop stop-opacity="1" stop-color="rgb(100%, 75.991821%, 34.072876%)" offset="0.375"/><stop stop-opacity="1" stop-color="rgb(100%, 76.174927%, 34.455872%)" offset="0.378906"/><stop stop-opacity="1" stop-color="rgb(100%, 76.252747%, 34.65271%)" offset="0.382813"/><stop stop-opacity="1" stop-color="rgb(100%, 76.454163%, 34.854126%)" offset="0.386719"/><stop stop-opacity="1" stop-color="rgb(100%, 76.657104%, 35.057068%)" offset="0.390625"/><stop stop-opacity="1" stop-color="rgb(100%, 76.777649%, 35.243225%)" offset="0.398438"/><stop stop-opacity="1" stop-color="rgb(100%, 76.951599%, 35.565186%)" offset="0.40625"/><stop stop-opacity="1" stop-color="rgb(100%, 77.180481%, 35.73761%)" offset="0.414063"/><stop stop-opacity="1" stop-color="rgb(100%, 77.503967%, 35.96344%)" offset="0.421875"/><stop stop-opacity="1" stop-color="rgb(100%, 77.825928%, 36.338806%)" offset="0.429688"/><stop stop-opacity="1" stop-color="rgb(100%, 78.024292%, 36.737061%)" offset="0.433594"/><stop stop-opacity="1" stop-color="rgb(100%, 78.048706%, 36.947632%)" offset="0.4375"/><stop stop-opacity="1" stop-color="rgb(100%, 78.234863%, 37.130737%)" offset="0.445313"/><stop stop-opacity="1" stop-color="rgb(100%, 78.607178%, 37.45575%)" offset="0.453125"/><stop stop-opacity="1" stop-color="rgb(100%, 78.968811%, 37.768555%)" offset="0.46875"/><stop stop-opacity="1" stop-color="rgb(100%, 79.351807%, 38.15155%)" offset="0.472656"/><stop stop-opacity="1" stop-color="rgb(100%, 79.560852%, 38.360596%)" offset="0.476563"/><stop stop-opacity="1" stop-color="rgb(100%, 79.579163%, 38.549805%)" offset="0.484375"/><stop stop-opacity="1" stop-color="rgb(100%, 79.756165%, 38.925171%)" offset="0.492188"/><stop stop-opacity="1" stop-color="rgb(100%, 80.099487%, 39.299011%)" offset="0.5"/><stop stop-opacity="1" stop-color="rgb(100%, 80.476379%, 39.675903%)" offset="0.515625"/><stop stop-opacity="1" stop-color="rgb(100%, 80.860901%, 40.060425%)" offset="0.523438"/><stop stop-opacity="1" stop-color="rgb(100%, 81.12793%, 40.441895%)" offset="0.53125"/><stop stop-opacity="1" stop-color="rgb(100%, 81.30188%, 40.815735%)" offset="0.539062"/><stop stop-opacity="1" stop-color="rgb(100%, 81.590271%, 41.189575%)" offset="0.546875"/><stop stop-opacity="1" stop-color="rgb(100%, 81.958008%, 41.558838%)" offset="0.5625"/><stop stop-opacity="1" stop-color="rgb(100%, 82.325745%, 41.944885%)" offset="0.566406"/><stop stop-opacity="1" stop-color="rgb(100%, 82.510376%, 42.147827%)" offset="0.570313"/><stop stop-opacity="1" stop-color="rgb(100%, 82.60498%, 42.318726%)" offset="0.578125"/><stop stop-opacity="1" stop-color="rgb(100%, 82.746887%, 42.642212%)" offset="0.585938"/><stop stop-opacity="1" stop-color="rgb(100%, 82.946777%, 42.947388%)" offset="0.59375"/><stop stop-opacity="1" stop-color="rgb(100%, 83.122253%, 43.122864%)" offset="0.601562"/><stop stop-opacity="1" stop-color="rgb(100%, 83.355713%, 43.356323%)" offset="0.605469"/><stop stop-opacity="1" stop-color="rgb(100%, 83.564758%, 43.565369%)" offset="0.609375"/><stop stop-opacity="1" stop-color="rgb(100%, 83.731079%, 43.751526%)" offset="0.617188"/><stop stop-opacity="1" stop-color="rgb(100%, 83.905029%, 44.12384%)" offset="0.625"/><stop stop-opacity="1" stop-color="rgb(100%, 84.09729%, 44.497681%)" offset="0.632812"/><stop stop-opacity="1" stop-color="rgb(100%, 84.47113%, 44.871521%)" offset="0.640625"/><stop stop-opacity="1" stop-color="rgb(100%, 84.67865%, 45.079041%)" offset="0.648438"/><stop stop-opacity="1" stop-color="rgb(100%, 84.877014%, 45.277405%)" offset="0.65625"/><stop stop-opacity="1" stop-color="rgb(100%, 85.241699%, 45.64209%)" offset="0.664062"/><stop stop-opacity="1" stop-color="rgb(100%, 85.464478%, 46.014404%)" offset="0.671875"/><stop stop-opacity="1" stop-color="rgb(100%, 85.636902%, 46.388245%)" offset="0.679687"/><stop stop-opacity="1" stop-color="rgb(100%, 85.961914%, 46.636963%)" offset="0.6875"/><stop stop-opacity="1" stop-color="rgb(100%, 86.224365%, 46.826172%)" offset="0.695313"/><stop stop-opacity="1" stop-color="rgb(100%, 86.422729%, 47.149658%)" offset="0.699219"/><stop stop-opacity="1" stop-color="rgb(100%, 86.546326%, 47.346497%)" offset="0.703125"/><stop stop-opacity="1" stop-color="rgb(100%, 86.732483%, 47.505188%)" offset="0.710938"/><stop stop-opacity="1" stop-color="rgb(100%, 87.008667%, 47.828674%)" offset="0.71875"/><stop stop-opacity="1" stop-color="rgb(100%, 87.182617%, 48.095703%)" offset="0.726562"/><stop stop-opacity="1" stop-color="rgb(100%, 87.382507%, 48.278809%)" offset="0.734375"/><stop stop-opacity="1" stop-color="rgb(100%, 87.561035%, 48.561096%)" offset="0.738281"/><stop stop-opacity="1" stop-color="rgb(100%, 87.62207%, 48.764038%)" offset="0.742188"/><stop stop-opacity="1" stop-color="rgb(100%, 87.779236%, 48.950195%)" offset="0.75"/><stop stop-opacity="1" stop-color="rgb(100%, 88.110352%, 49.310303%)" offset="0.765625"/><stop stop-opacity="1" stop-color="rgb(100%, 88.475037%, 49.674988%)" offset="0.773438"/><stop stop-opacity="1" stop-color="rgb(100%, 88.832092%, 50.073242%)" offset="0.777344"/><stop stop-opacity="1" stop-color="rgb(100%, 88.999939%, 50.280762%)" offset="0.78125"/><stop stop-opacity="1" stop-color="rgb(100%, 89.027405%, 50.466919%)" offset="0.789062"/><stop stop-opacity="1" stop-color="rgb(100%, 89.227295%, 50.827026%)" offset="0.796875"/><stop stop-opacity="1" stop-color="rgb(100%, 89.587402%, 51.187134%)" offset="0.8125"/><stop stop-opacity="1" stop-color="rgb(100%, 89.961243%, 51.560974%)" offset="0.820313"/><stop stop-opacity="1" stop-color="rgb(100%, 90.17334%, 51.957703%)" offset="0.824219"/><stop stop-opacity="1" stop-color="rgb(100%, 90.19928%, 52.168274%)" offset="0.828125"/><stop stop-opacity="1" stop-color="rgb(100%, 90.371704%, 52.183533%)" offset="0.835938"/><stop stop-opacity="1" stop-color="rgb(100%, 90.571594%, 52.31781%)" offset="0.84375"/><stop stop-opacity="1" stop-color="rgb(100%, 90.745544%, 52.615356%)" offset="0.851562"/><stop stop-opacity="1" stop-color="rgb(100%, 90.979004%, 52.879333%)" offset="0.859375"/><stop stop-opacity="1" stop-color="rgb(100%, 91.163635%, 53.063965%)" offset="0.875"/><stop stop-opacity="1" stop-color="rgb(100%, 91.329956%, 53.22876%)" offset="1"/></linearGradient></defs><g fill="#000000" fill-opacity="1"><g transform="translate(235.845642, 413.239445)"><g><path d="M 8.578125 0.25 C 7.617188 0.25 6.785156 0.0664062 6.078125 -0.296875 C 5.367188 -0.671875 4.8125 -1.164062 4.40625 -1.78125 L 4.15625 -1.734375 L 4.15625 0 L 2.25 0 L 2.25 -18.09375 L 4.15625 -18.09375 L 4.15625 -10.984375 L 4.40625 -10.9375 C 5.382812 -12.414062 6.8125 -13.15625 8.6875 -13.15625 C 9.75 -13.15625 10.675781 -12.910156 11.46875 -12.421875 C 12.257812 -11.929688 12.875 -11.179688 13.3125 -10.171875 C 13.757812 -9.171875 13.984375 -7.929688 13.984375 -6.453125 C 13.984375 -4.984375 13.75 -3.742188 13.28125 -2.734375 C 12.820312 -1.734375 12.1875 -0.984375 11.375 -0.484375 C 10.5625 0.00390625 9.628906 0.25 8.578125 0.25 Z M 8.125 -1.46875 C 10.695312 -1.46875 11.984375 -3.128906 11.984375 -6.453125 C 11.984375 -8.171875 11.644531 -9.429688 10.96875 -10.234375 C 10.300781 -11.046875 9.351562 -11.453125 8.125 -11.453125 C 6.914062 -11.453125 5.953125 -11.039062 5.234375 -10.21875 C 4.515625 -9.394531 4.15625 -8.140625 4.15625 -6.453125 C 4.15625 -4.773438 4.515625 -3.523438 5.234375 -2.703125 C 5.953125 -1.878906 6.914062 -1.46875 8.125 -1.46875 Z M 8.125 -1.46875 "/></g></g><g transform="translate(251.247846, 413.239445)"><g><path d="M 5.140625 0.25 C 4.222656 0.25 3.503906 -0.0078125 2.984375 -0.53125 C 2.460938 -1.050781 2.203125 -1.828125 2.203125 -2.859375 L 2.203125 -18.09375 L 4.109375 -18.09375 L 4.109375 -2.984375 C 4.109375 -2.441406 4.210938 -2.050781 4.421875 -1.8125 C 4.628906 -1.582031 4.953125 -1.46875 5.390625 -1.46875 C 5.648438 -1.46875 5.914062 -1.507812 6.1875 -1.59375 L 6.359375 -1.546875 L 6.578125 -0.046875 C 6.429688 0.046875 6.226562 0.117188 5.96875 0.171875 C 5.707031 0.222656 5.429688 0.25 5.140625 0.25 Z M 5.140625 0.25 "/></g></g><g transform="translate(258.270127, 413.239445)"><g><path d="M 7.40625 0.25 C 6.1875 0.25 5.125 -0.00390625 4.21875 -0.515625 C 3.320312 -1.035156 2.628906 -1.796875 2.140625 -2.796875 C 1.660156 -3.804688 1.421875 -5.023438 1.421875 -6.453125 C 1.421875 -7.878906 1.660156 -9.09375 2.140625 -10.09375 C 2.628906 -11.101562 3.320312 -11.863281 4.21875 -12.375 C 5.125 -12.894531 6.1875 -13.15625 7.40625 -13.15625 C 8.625 -13.15625 9.679688 -12.894531 10.578125 -12.375 C 11.484375 -11.863281 12.179688 -11.101562 12.671875 -10.09375 C 13.160156 -9.09375 13.40625 -7.878906 13.40625 -6.453125 C 13.40625 -5.023438 13.160156 -3.804688 12.671875 -2.796875 C 12.179688 -1.796875 11.484375 -1.035156 10.578125 -0.515625 C 9.679688 -0.00390625 8.625 0.25 7.40625 0.25 Z M 7.40625 -1.46875 C 8.695312 -1.46875 9.679688 -1.867188 10.359375 -2.671875 C 11.046875 -3.484375 11.390625 -4.742188 11.390625 -6.453125 C 11.390625 -8.160156 11.046875 -9.421875 10.359375 -10.234375 C 9.679688 -11.046875 8.695312 -11.453125 7.40625 -11.453125 C 6.125 -11.453125 5.140625 -11.039062 4.453125 -10.21875 C 3.765625 -9.40625 3.421875 -8.148438 3.421875 -6.453125 C 3.421875 -4.742188 3.765625 -3.484375 4.453125 -2.671875 C 5.140625 -1.867188 6.125 -1.46875 7.40625 -1.46875 Z M 7.40625 -1.46875 "/></g></g><g transform="translate(273.087141, 413.239445)"><g><path d="M 6.640625 5.484375 C 4.609375 5.484375 3.125 5.140625 2.1875 4.453125 C 1.25 3.773438 0.78125 2.875 0.78125 1.75 C 0.78125 1.03125 1 0.453125 1.4375 0.015625 C 1.875 -0.410156 2.507812 -0.71875 3.34375 -0.90625 L 3.34375 -1.140625 C 2.945312 -1.367188 2.648438 -1.632812 2.453125 -1.9375 C 2.253906 -2.25 2.15625 -2.613281 2.15625 -3.03125 C 2.15625 -3.53125 2.3125 -3.9375 2.625 -4.25 C 2.9375 -4.5625 3.40625 -4.800781 4.03125 -4.96875 L 4.03125 -5.203125 C 2.632812 -5.941406 1.9375 -7.148438 1.9375 -8.828125 C 1.9375 -9.671875 2.125 -10.414062 2.5 -11.0625 C 2.882812 -11.71875 3.429688 -12.226562 4.140625 -12.59375 C 4.847656 -12.96875 5.675781 -13.15625 6.625 -13.15625 C 7.707031 -13.15625 8.613281 -12.914062 9.34375 -12.4375 C 9.613281 -12.738281 9.816406 -13.0625 9.953125 -13.40625 C 10.085938 -13.757812 10.175781 -14.15625 10.21875 -14.59375 L 10.46875 -14.75 L 12.03125 -14.375 C 11.957031 -13.71875 11.757812 -13.160156 11.4375 -12.703125 C 11.125 -12.253906 10.675781 -11.882812 10.09375 -11.59375 L 10.09375 -11.34375 C 10.507812 -11.007812 10.816406 -10.625 11.015625 -10.1875 C 11.210938 -9.75 11.3125 -9.238281 11.3125 -8.65625 C 11.3125 -7.84375 11.113281 -7.109375 10.71875 -6.453125 C 10.332031 -5.804688 9.785156 -5.296875 9.078125 -4.921875 C 8.367188 -4.554688 7.550781 -4.375 6.625 -4.375 C 6.507812 -4.375 6.3125 -4.382812 6.03125 -4.40625 C 5.726562 -4.414062 5.5 -4.421875 5.34375 -4.421875 C 4.9375 -4.421875 4.613281 -4.316406 4.375 -4.109375 C 4.132812 -3.898438 4.015625 -3.628906 4.015625 -3.296875 C 4.015625 -2.890625 4.144531 -2.59375 4.40625 -2.40625 C 4.664062 -2.21875 5.097656 -2.109375 5.703125 -2.078125 L 8.75 -1.984375 C 10.070312 -1.929688 11.050781 -1.617188 11.6875 -1.046875 C 12.320312 -0.484375 12.640625 0.3125 12.640625 1.34375 C 12.640625 2.113281 12.429688 2.804688 12.015625 3.421875 C 11.609375 4.046875 10.953125 4.546875 10.046875 4.921875 C 9.148438 5.296875 8.015625 5.484375 6.640625 5.484375 Z M 6.625 -6.015625 C 7.539062 -6.015625 8.242188 -6.25 8.734375 -6.71875 C 9.234375 -7.195312 9.484375 -7.867188 9.484375 -8.734375 C 9.484375 -9.617188 9.234375 -10.300781 8.734375 -10.78125 C 8.242188 -11.269531 7.539062 -11.515625 6.625 -11.515625 C 5.707031 -11.515625 5.003906 -11.273438 4.515625 -10.796875 C 4.035156 -10.316406 3.796875 -9.628906 3.796875 -8.734375 C 3.796875 -7.867188 4.035156 -7.195312 4.515625 -6.71875 C 5.003906 -6.25 5.707031 -6.015625 6.625 -6.015625 Z M 6.640625 3.84375 C 7.597656 3.84375 8.378906 3.734375 8.984375 3.515625 C 9.585938 3.304688 10.019531 3.03125 10.28125 2.6875 C 10.550781 2.34375 10.6875 1.953125 10.6875 1.515625 C 10.6875 1.140625 10.613281 0.832031 10.46875 0.59375 C 10.320312 0.363281 10.085938 0.1875 9.765625 0.0625 C 9.453125 -0.0507812 9.019531 -0.125 8.46875 -0.15625 L 5.578125 -0.296875 L 5.15625 -0.296875 C 3.539062 -0.265625 2.734375 0.363281 2.734375 1.59375 C 2.734375 3.09375 4.035156 3.84375 6.640625 3.84375 Z M 6.640625 3.84375 "/></g></g><g transform="translate(286.312437, 413.239445)"><g><path d="M 2.25 5.234375 L 2.25 -12.90625 L 4.15625 -12.90625 L 4.15625 -10.984375 L 4.40625 -10.9375 C 5.363281 -12.414062 6.769531 -13.15625 8.625 -13.15625 C 9.695312 -13.15625 10.632812 -12.910156 11.4375 -12.421875 C 12.25 -11.929688 12.875 -11.179688 13.3125 -10.171875 C 13.757812 -9.171875 13.984375 -7.929688 13.984375 -6.453125 C 13.984375 -4.972656 13.75 -3.734375 13.28125 -2.734375 C 12.8125 -1.734375 12.160156 -0.984375 11.328125 -0.484375 C 10.503906 0.00390625 9.554688 0.25 8.484375 0.25 C 7.609375 0.25 6.832031 0.0976562 6.15625 -0.203125 C 5.476562 -0.515625 4.894531 -1.015625 4.40625 -1.703125 L 4.15625 -1.65625 L 4.15625 5.234375 Z M 8.0625 -1.46875 C 10.675781 -1.46875 11.984375 -3.128906 11.984375 -6.453125 C 11.984375 -9.785156 10.675781 -11.453125 8.0625 -11.453125 C 7.300781 -11.453125 6.625 -11.273438 6.03125 -10.921875 C 5.445312 -10.566406 4.988281 -10.015625 4.65625 -9.265625 C 4.320312 -8.523438 4.15625 -7.585938 4.15625 -6.453125 C 4.15625 -5.316406 4.320312 -4.375 4.65625 -3.625 C 4.988281 -2.882812 5.445312 -2.335938 6.03125 -1.984375 C 6.625 -1.640625 7.300781 -1.46875 8.0625 -1.46875 Z M 8.0625 -1.46875 "/></g></g><g transform="translate(301.714641, 413.239445)"><g><path d="M 12.296875 -6.015625 L 3.421875 -6.015625 C 3.484375 -4.441406 3.863281 -3.289062 4.5625 -2.5625 C 5.257812 -1.832031 6.21875 -1.46875 7.4375 -1.46875 C 8.351562 -1.46875 9.09375 -1.628906 9.65625 -1.953125 C 10.21875 -2.285156 10.660156 -2.800781 10.984375 -3.5 L 11.21875 -3.5 L 12.46875 -2.765625 C 12.09375 -1.828125 11.492188 -1.085938 10.671875 -0.546875 C 9.847656 -0.015625 8.769531 0.25 7.4375 0.25 C 6.1875 0.25 5.113281 0.00390625 4.21875 -0.484375 C 3.320312 -0.984375 2.628906 -1.726562 2.140625 -2.71875 C 1.660156 -3.71875 1.421875 -4.960938 1.421875 -6.453125 C 1.421875 -7.921875 1.675781 -9.15625 2.1875 -10.15625 C 2.695312 -11.164062 3.394531 -11.914062 4.28125 -12.40625 C 5.164062 -12.90625 6.175781 -13.15625 7.3125 -13.15625 C 8.96875 -13.15625 10.257812 -12.6875 11.1875 -11.75 C 12.113281 -10.820312 12.582031 -9.441406 12.59375 -7.609375 C 12.59375 -6.890625 12.578125 -6.40625 12.546875 -6.15625 Z M 10.703125 -7.609375 C 10.671875 -8.984375 10.367188 -9.984375 9.796875 -10.609375 C 9.222656 -11.234375 8.394531 -11.546875 7.3125 -11.546875 C 6.1875 -11.546875 5.300781 -11.226562 4.65625 -10.59375 C 4.007812 -9.96875 3.613281 -8.972656 3.46875 -7.609375 Z M 10.703125 -7.609375 "/></g></g><g transform="translate(315.478312, 413.239445)"><g><path d="M 6.6875 0.25 C 5.65625 0.25 4.742188 0.00390625 3.953125 -0.484375 C 3.160156 -0.984375 2.539062 -1.734375 2.09375 -2.734375 C 1.644531 -3.734375 1.421875 -4.972656 1.421875 -6.453125 C 1.421875 -7.921875 1.65625 -9.15625 2.125 -10.15625 C 2.59375 -11.164062 3.238281 -11.914062 4.0625 -12.40625 C 4.882812 -12.90625 5.835938 -13.15625 6.921875 -13.15625 C 7.773438 -13.15625 8.546875 -12.992188 9.234375 -12.671875 C 9.921875 -12.347656 10.507812 -11.816406 11 -11.078125 L 11.25 -11.125 L 11.25 -18.09375 L 13.15625 -18.09375 L 13.15625 0 L 11.25 0 L 11.25 -1.890625 L 11 -1.9375 C 10.582031 -1.289062 10.007812 -0.765625 9.28125 -0.359375 C 8.5625 0.046875 7.695312 0.25 6.6875 0.25 Z M 7.296875 -1.46875 C 8.492188 -1.46875 9.453125 -1.878906 10.171875 -2.703125 C 10.890625 -3.523438 11.25 -4.773438 11.25 -6.453125 C 11.25 -8.140625 10.890625 -9.394531 10.171875 -10.21875 C 9.453125 -11.039062 8.492188 -11.453125 7.296875 -11.453125 C 6.054688 -11.453125 5.097656 -11.046875 4.421875 -10.234375 C 3.753906 -9.429688 3.421875 -8.171875 3.421875 -6.453125 C 3.421875 -3.128906 4.710938 -1.46875 7.296875 -1.46875 Z M 7.296875 -1.46875 "/></g></g><g transform="translate(330.89222, 413.239445)"><g><path d="M 3.203125 -15.40625 C 2.796875 -15.40625 2.46875 -15.53125 2.21875 -15.78125 C 1.96875 -16.03125 1.84375 -16.351562 1.84375 -16.75 C 1.84375 -17.132812 1.96875 -17.453125 2.21875 -17.703125 C 2.46875 -17.960938 2.796875 -18.09375 3.203125 -18.09375 C 3.609375 -18.09375 3.9375 -17.960938 4.1875 -17.703125 C 4.445312 -17.453125 4.578125 -17.132812 4.578125 -16.75 C 4.578125 -16.351562 4.445312 -16.03125 4.1875 -15.78125 C 3.9375 -15.53125 3.609375 -15.40625 3.203125 -15.40625 Z M 2.25 0 L 2.25 -12.90625 L 4.15625 -12.90625 L 4.15625 0 Z M 2.25 0 "/></g></g><g transform="translate(337.294199, 413.239445)"><g><path d="M 5.328125 0.25 C 4.054688 0.25 3.0625 -0.0820312 2.34375 -0.75 C 1.632812 -1.414062 1.28125 -2.363281 1.28125 -3.59375 C 1.28125 -4.351562 1.4375 -4.992188 1.75 -5.515625 C 2.0625 -6.046875 2.550781 -6.476562 3.21875 -6.8125 C 3.882812 -7.144531 4.75 -7.398438 5.8125 -7.578125 C 6.75 -7.734375 7.460938 -7.910156 7.953125 -8.109375 C 8.441406 -8.304688 8.769531 -8.523438 8.9375 -8.765625 C 9.101562 -9.003906 9.1875 -9.304688 9.1875 -9.671875 C 9.1875 -10.265625 8.984375 -10.71875 8.578125 -11.03125 C 8.179688 -11.34375 7.535156 -11.5 6.640625 -11.5 C 5.804688 -11.5 5.09375 -11.332031 4.5 -11 C 3.90625 -10.675781 3.359375 -10.195312 2.859375 -9.5625 L 2.625 -9.5625 L 1.6875 -10.890625 C 2.226562 -11.578125 2.921875 -12.125 3.765625 -12.53125 C 4.609375 -12.945312 5.566406 -13.15625 6.640625 -13.15625 C 8.171875 -13.15625 9.296875 -12.820312 10.015625 -12.15625 C 10.734375 -11.488281 11.09375 -10.566406 11.09375 -9.390625 L 11.09375 -2.546875 C 11.09375 -1.828125 11.394531 -1.46875 12 -1.46875 C 12.207031 -1.46875 12.40625 -1.5 12.59375 -1.5625 L 12.75 -1.515625 L 12.984375 -0.203125 C 12.835938 -0.109375 12.648438 -0.0351562 12.421875 0.015625 C 12.191406 0.0664062 11.957031 0.09375 11.71875 0.09375 C 11.007812 0.09375 10.472656 -0.0625 10.109375 -0.375 C 9.742188 -0.6875 9.507812 -1.144531 9.40625 -1.75 L 9.15625 -1.78125 C 8.789062 -1.101562 8.296875 -0.59375 7.671875 -0.25 C 7.046875 0.0820312 6.265625 0.25 5.328125 0.25 Z M 5.75 -1.28125 C 6.46875 -1.28125 7.085938 -1.441406 7.609375 -1.765625 C 8.140625 -2.097656 8.546875 -2.566406 8.828125 -3.171875 C 9.109375 -3.773438 9.25 -4.46875 9.25 -5.25 L 9.25 -6.890625 L 9.015625 -6.9375 C 8.734375 -6.738281 8.382812 -6.566406 7.96875 -6.421875 C 7.550781 -6.285156 6.972656 -6.164062 6.234375 -6.0625 C 5.484375 -5.957031 4.890625 -5.800781 4.453125 -5.59375 C 4.015625 -5.382812 3.703125 -5.117188 3.515625 -4.796875 C 3.328125 -4.472656 3.234375 -4.070312 3.234375 -3.59375 C 3.234375 -2.832031 3.453125 -2.253906 3.890625 -1.859375 C 4.335938 -1.472656 4.957031 -1.28125 5.75 -1.28125 Z M 5.75 -1.28125 "/></g></g></g><path fill="#e1d7f7" d="M 564.164062 775.511719 C 564.164062 793.898438 442.691406 808.800781 292.855469 808.800781 C 143.011719 808.800781 21.542969 793.898438 21.542969 775.511719 C 21.542969 757.132812 143.011719 742.226562 292.855469 742.226562 C 442.691406 742.226562 564.164062 757.132812 564.164062 775.511719 " fill-opacity="1" fill-rule="nonzero"/><g clip-path="url(#76819af75a)"><path fill="#e1d7f7" d="M 228.527344 605.492188 C 209.976562 590.628906 208.847656 584.339844 163.546875 544.554688 C 123.308594 509.230469 6.15625 516.972656 0.195312 357.152344 C -8.210938 131.816406 260.835938 29.660156 475.480469 181.320312 C 519.292969 212.273438 635.890625 350.96875 561.441406 509.996094 C 505.511719 629.46875 352.984375 705.214844 228.527344 605.492188 " fill-opacity="1" fill-rule="nonzero"/></g><path fill="#5f3fc4" d="M 476.929688 609.503906 C 475.175781 612.863281 472.226562 616.695312 467.199219 619.417969 C 448.449219 629.566406 435.46875 617.261719 386.691406 614.25 C 351.90625 612.097656 344.796875 612.28125 328.210938 612.128906 C 326.316406 612.117188 313.128906 613.59375 305.378906 610.347656 C 303.671875 609.628906 297.507812 607.050781 294.578125 601.011719 C 290.609375 592.855469 295.132812 583.691406 296.539062 580.835938 C 304.414062 564.84375 325.515625 558.640625 342.9375 556.140625 C 384.792969 550.121094 414.488281 556.046875 432.398438 560.53125 C 462.777344 568.148438 470.339844 577.34375 473.851562 583.3125 C 474.84375 585.007812 483.117188 597.683594 476.929688 609.503906 " fill-opacity="1" fill-rule="nonzero"/><path fill="#5f3fc4" d="M 511.105469 319.652344 C 508.449219 312.4375 493.246094 318.167969 487.671875 324.089844 C 482.027344 330.105469 483.125 339.078125 483.007812 343.59375 C 481.667969 398.160156 466.273438 449.054688 457.921875 470.492188 C 444.460938 505.039062 435.429688 547.625 445.527344 571.890625 C 447.128906 575.734375 456.324219 597.835938 468.082031 597.28125 C 473.140625 597.046875 476.53125 592.519531 477.933594 591.253906 C 489.070312 581.132812 475.070312 558.101562 475.628906 532.105469 C 476.5625 488.734375 503.632812 446.328125 510.941406 394.199219 C 514.933594 365.730469 514.417969 328.636719 511.105469 319.652344 " fill-opacity="1" fill-rule="nonzero"/><path fill="#5f3fc4" d="M 309.988281 769.027344 C 311.875 790.570312 326.601562 778.5625 329.144531 776.507812 C 331.835938 774.328125 333.355469 770.363281 332.277344 766.015625 C 330.960938 760.707031 326.558594 757.324219 322.300781 758.285156 C 318.082031 759.238281 309.515625 763.582031 309.988281 769.027344 " fill-opacity="1" fill-rule="nonzero"/><path fill="#5f3fc4" d="M 309.667969 773.878906 C 310.980469 779.1875 315.453125 782.648438 319.644531 781.609375 C 323.839844 780.574219 326.171875 775.425781 324.855469 770.117188 C 323.542969 764.804688 319.070312 761.34375 314.878906 762.382812 C 310.683594 763.421875 308.351562 768.566406 309.667969 773.878906 " fill-opacity="1" fill-rule="nonzero"/><path fill="#5f3fc4" d="M 293.09375 741.1875 C 294.722656 759.824219 307.460938 749.4375 309.660156 747.660156 C 311.988281 745.769531 313.308594 742.339844 312.375 738.582031 C 311.230469 733.988281 307.421875 731.058594 303.738281 731.894531 C 300.09375 732.714844 292.679688 736.472656 293.09375 741.1875 " fill-opacity="1" fill-rule="nonzero"/><path fill="#5f3fc4" d="M 292.808594 745.382812 C 293.945312 749.972656 297.8125 752.96875 301.445312 752.070312 C 305.070312 751.171875 307.089844 746.71875 305.953125 742.125 C 304.8125 737.535156 300.945312 734.535156 297.320312 735.4375 C 293.6875 736.339844 291.667969 740.789062 292.808594 745.382812 " fill-opacity="1" fill-rule="nonzero"/><path fill="#5f3fc4" d="M 460.035156 741.1875 C 461.660156 759.824219 474.402344 749.4375 476.601562 747.660156 C 478.929688 745.769531 480.246094 742.339844 479.3125 738.582031 C 478.171875 733.988281 474.363281 731.058594 470.679688 731.894531 C 467.035156 732.714844 459.617188 736.472656 460.035156 741.1875 " fill-opacity="1" fill-rule="nonzero"/><path fill="#5f3fc4" d="M 459.75 745.382812 C 460.886719 749.972656 464.75 752.96875 468.382812 752.070312 C 472.011719 751.171875 474.027344 746.71875 472.894531 742.125 C 471.753906 737.535156 467.886719 734.535156 464.257812 735.4375 C 460.628906 736.339844 458.609375 740.789062 459.75 745.382812 " fill-opacity="1" fill-rule="nonzero"/><path fill="#5f3fc4" d="M 439.847656 769.027344 C 441.726562 790.570312 456.457031 778.5625 458.992188 776.507812 C 461.6875 774.328125 463.207031 770.363281 462.128906 766.015625 C 460.816406 760.707031 456.40625 757.324219 452.152344 758.285156 C 447.929688 759.238281 439.367188 763.582031 439.847656 769.027344 " fill-opacity="1" fill-rule="nonzero"/><path fill="#5f3fc4" d="M 439.519531 773.878906 C 440.828125 779.1875 445.300781 782.648438 449.496094 781.609375 C 453.691406 780.574219 456.023438 775.425781 454.703125 770.117188 C 453.394531 764.804688 448.921875 761.34375 444.726562 762.382812 C 440.535156 763.421875 438.199219 768.566406 439.519531 773.878906 " fill-opacity="1" fill-rule="nonzero"/><path fill="#5f3fc4" d="M 472.40625 724.550781 C 458.394531 714.902344 427.195312 702.71875 384.988281 701.992188 L 384.988281 701.957031 C 384.65625 701.960938 384.335938 701.96875 384 701.976562 C 383.671875 701.96875 383.34375 701.960938 383.015625 701.957031 L 383.015625 701.992188 C 340.804688 702.71875 309.605469 714.902344 295.597656 724.550781 C 292.078125 726.972656 293.164062 730 293.367188 732.273438 C 293.542969 734.242188 297.148438 737.375 305.316406 732.847656 C 330.304688 718.992188 348.234375 715.980469 353.28125 716.671875 C 354.835938 716.894531 355.308594 717.777344 351.59375 719.875 C 344.347656 723.980469 322.667969 735.757812 312.246094 750.824219 C 311.445312 751.976562 309.480469 758.527344 313.503906 760.535156 C 318.535156 763.046875 323.769531 760.097656 324.804688 759.378906 C 339.800781 748.925781 370.738281 726.722656 384 726.253906 C 397.269531 726.722656 428.199219 748.925781 443.203125 759.378906 C 444.234375 760.097656 449.46875 763.046875 454.503906 760.535156 C 458.519531 758.527344 456.554688 751.976562 455.75 750.824219 C 445.332031 735.757812 423.652344 723.980469 416.402344 719.875 C 412.695312 717.777344 413.167969 716.894531 414.726562 716.671875 C 419.765625 715.980469 437.703125 718.992188 462.6875 732.847656 C 470.851562 737.375 474.457031 734.242188 474.632812 732.273438 C 474.84375 730 475.921875 726.972656 472.40625 724.550781 " fill-opacity="1" fill-rule="nonzero"/><path fill="#9c74e7" d="M 472.179688 724.074219 C 463.546875 718.074219 431.597656 700.738281 384.429688 700.589844 L 384.429688 700.582031 C 384.285156 700.582031 384.144531 700.582031 384 700.582031 C 383.859375 700.582031 383.714844 700.582031 383.570312 700.582031 L 383.570312 700.589844 C 336.410156 700.738281 304.457031 718.074219 295.824219 724.074219 C 294.230469 725.183594 296.261719 728 300.082031 726.265625 C 302.511719 725.164062 332.695312 707.464844 365.691406 706.53125 C 371.949219 706.355469 372.160156 708.347656 367.273438 710.527344 C 333.597656 725.566406 312.222656 748.808594 312.222656 750.609375 C 312.222656 753.425781 317.222656 754.441406 318.824219 753.15625 C 329.261719 744.816406 348.5625 728.410156 373.203125 716.101562 C 373.398438 716.003906 373.738281 715.867188 374.1875 715.695312 C 380.425781 713.382812 387.582031 713.382812 393.8125 715.695312 C 394.265625 715.867188 394.609375 716.003906 394.796875 716.101562 C 419.445312 728.410156 438.734375 744.816406 449.175781 753.15625 C 450.78125 754.441406 455.777344 753.425781 455.777344 750.609375 C 455.777344 748.808594 434.410156 725.566406 400.730469 710.527344 C 395.84375 708.347656 396.050781 706.355469 402.308594 706.53125 C 435.3125 707.464844 465.496094 725.164062 467.917969 726.265625 C 471.746094 728 473.777344 725.183594 472.179688 724.074219 " fill-opacity="1" fill-rule="nonzero"/><path fill="#5f3fc4" d="M 377.480469 689.488281 L 392.085938 689.488281 L 392.085938 613.957031 L 377.480469 613.957031 L 377.480469 689.488281 " fill-opacity="1" fill-rule="nonzero"/><path fill="#9c74e7" d="M 383.816406 709.464844 L 385.746094 709.464844 C 391.347656 709.464844 395.886719 704.925781 395.886719 699.328125 L 395.886719 653.789062 C 395.886719 653.105469 395.332031 652.550781 394.652344 652.550781 L 374.917969 652.550781 C 374.230469 652.550781 373.683594 653.105469 373.683594 653.789062 L 373.683594 699.328125 C 373.683594 704.925781 378.222656 709.464844 383.816406 709.464844 " fill-opacity="1" fill-rule="nonzero"/><path fill="#512618" d="M 128.574219 736.855469 C 164.757812 738.445312 184.402344 712.953125 186.832031 705.5 C 201.828125 659.433594 193.382812 616.296875 198.160156 567.585938 C 198.6875 562.214844 197.035156 553.285156 203.808594 544.089844 C 204.78125 542.769531 208.042969 539.007812 213.882812 536.058594 C 244.921875 520.351562 366.039062 484.46875 403.789062 492.71875 C 413.863281 494.917969 418.9375 502.128906 420.65625 509.894531 C 430.027344 552.28125 418.972656 572.289062 389.59375 576.4375 C 378.246094 578.035156 366.320312 574.898438 356.308594 576.039062 C 330.769531 578.945312 302.496094 577.121094 276.015625 576.175781 C 231.671875 574.601562 257.75 577.664062 252.195312 616.351562 C 245.988281 659.5625 216.714844 691.378906 212.851562 722.449219 C 211.628906 732.261719 221.082031 736.238281 214.089844 747.742188 C 210.640625 753.414062 207.386719 753.832031 202.042969 753.835938 C 179.554688 753.867188 164.304688 753.691406 153.34375 756.679688 C 138.1875 760.820312 115.980469 747.875 115.097656 740.570312 C 114.128906 732.5 127.199219 736.792969 128.574219 736.855469 " fill-opacity="1" fill-rule="nonzero"/><path fill="#5f3fc4" d="M 177.9375 726.46875 C 175.761719 725.492188 173.488281 724.699219 171.097656 724.023438 C 160.671875 729.003906 144.101562 734.058594 128.574219 736.855469 C 127.21875 737.097656 114.128906 732.5 115.097656 740.570312 C 115.980469 747.875 138.1875 760.820312 153.34375 756.679688 C 164.304688 753.691406 179.554688 753.867188 202.042969 753.835938 C 207.386719 753.832031 210.640625 753.414062 214.089844 747.742188 C 219.292969 739.183594 215.394531 734.789062 213.558594 729.066406 C 205.941406 733.230469 195.691406 734.449219 177.9375 726.46875 " fill-opacity="1" fill-rule="nonzero"/><path fill="#282444" d="M 344.078125 254.984375 C 344.460938 254.613281 344.40625 253.917969 343.976562 253.609375 C 342.121094 252.25 341.050781 250.40625 341.316406 248.613281 C 341.484375 247.421875 342.21875 246.4375 343.300781 245.730469 C 343.585938 245.546875 343.730469 245.214844 343.699219 244.875 C 341.996094 244.097656 340.960938 242.371094 341.304688 240.695312 C 341.472656 239.851562 341.976562 239.15625 342.664062 238.691406 C 342.671875 238.621094 342.671875 238.550781 342.679688 238.480469 C 342.695312 238.25 342.628906 238.015625 342.488281 237.839844 C 340.804688 235.640625 339.796875 232.878906 339.78125 229.886719 C 339.765625 223.449219 344.355469 218.089844 350.421875 216.976562 C 350.996094 216.867188 351.300781 216.167969 350.988281 215.632812 C 349.175781 212.5625 348.617188 209.183594 349.796875 206.394531 C 351.921875 201.339844 358.886719 200.132812 365.351562 203.707031 C 365.4375 203.753906 365.527344 203.800781 365.621094 203.859375 C 366.175781 204.179688 366.832031 203.695312 366.78125 203.003906 C 366.398438 197.367188 367.867188 192.765625 370.867188 191.511719 C 373.71875 190.3125 377.21875 192.449219 380.039062 196.605469 C 380.40625 197.140625 381.148438 197.070312 381.40625 196.464844 C 382.882812 193.0625 385.230469 191.011719 387.140625 191.71875 C 388.410156 192.1875 389.214844 193.773438 389.460938 195.886719 C 389.542969 196.628906 390.363281 196.945312 390.835938 196.402344 C 395.699219 190.753906 401.660156 188.550781 404.792969 191.503906 C 406.566406 193.183594 407.089844 196.195312 406.496094 199.679688 C 406.371094 200.429688 407.121094 200.972656 407.714844 200.574219 C 412.355469 197.417969 417.804688 197.296875 421.511719 200.808594 C 424.160156 203.304688 425.390625 207.144531 425.222656 211.253906 C 425.203125 211.667969 425.441406 212.035156 425.800781 212.152344 C 427.820312 212.824219 429.773438 213.96875 431.515625 215.613281 C 437.429688 221.207031 438.90625 230.578125 435.273438 237.523438 C 435.003906 238.046875 435.265625 238.691406 435.796875 238.828125 C 439.335938 239.761719 441.914062 242.660156 441.925781 246.097656 C 441.941406 249.183594 439.878906 251.851562 436.902344 253.0625 C 436.238281 253.324219 436.207031 254.339844 436.84375 254.675781 C 439.652344 256.15625 441.402344 258.839844 441.011719 261.515625 C 440.570312 264.53125 437.558594 266.550781 433.917969 266.492188 C 433.269531 266.488281 432.878906 267.269531 433.238281 267.875 C 434.882812 270.609375 435.425781 273.226562 434.410156 274.390625 C 433.425781 275.53125 431.238281 274.996094 428.917969 273.257812 C 428.378906 272.859375 427.660156 273.300781 427.675781 274.007812 C 427.75 276.863281 426.792969 279.308594 424.957031 280.285156 C 423.285156 281.179688 421.273438 280.65625 419.519531 279.132812 C 419.066406 278.738281 418.402344 278.960938 418.25 279.570312 C 417.445312 282.792969 415.421875 285.136719 412.929688 285.308594 C 410.949219 285.445312 409.113281 284.1875 407.863281 282.117188 C 407.667969 281.785156 407.285156 281.660156 406.949219 281.789062 C 402.113281 283.65625 396.820312 284.691406 391.273438 284.710938 C 384.285156 284.734375 378.539062 283.273438 372.75 280.4375 C 372.257812 280.191406 371.6875 280.519531 371.601562 281.109375 C 370.882812 286.058594 367.046875 287.703125 362.675781 286.871094 C 361.132812 286.574219 359.175781 285.09375 358.816406 283.847656 C 358.761719 283.648438 358.253906 283.101562 357.398438 283.503906 C 353.804688 285.1875 349.628906 280.511719 350.351562 275.5625 C 350.515625 274.421875 350.871094 273.375 351.355469 272.429688 C 351.609375 271.925781 351.1875 270.632812 349.773438 270.957031 C 349.242188 271.074219 348.644531 270.957031 348.019531 270.84375 C 343.636719 270.0625 340.683594 265.316406 341.402344 260.367188 C 341.726562 258.179688 342.710938 256.3125 344.078125 254.984375 " fill-opacity="1" fill-rule="nonzero"/><path fill="#7f4730" d="M 408.828125 260.265625 C 410.386719 260.214844 414.574219 262.238281 414.53125 265.679688 C 414.195312 291.667969 425.082031 305.339844 424.5 308.554688 C 422.601562 319.1875 407.65625 323.871094 399.191406 323.746094 C 394.691406 323.679688 392.140625 320.316406 389.160156 316.761719 C 381.015625 307.058594 377.214844 274.449219 384.441406 274.882812 C 396.589844 275.609375 400.535156 260.523438 408.828125 260.265625 " fill-opacity="1" fill-rule="nonzero"/><path fill="#7f4730" d="M 413.074219 243.5625 C 412.101562 244.488281 411.339844 230.636719 400.246094 223.785156 C 384.90625 215.847656 366.089844 218.722656 358.375 233.125 C 358.007812 236.351562 357.460938 244.363281 357.605469 245.875 C 358.570312 255.984375 361.320312 273.832031 368.710938 283.8125 C 370.835938 286.6875 375.5625 290.988281 382.03125 291.546875 C 393.820312 292.574219 404.207031 281.972656 407.820312 274.945312 C 409.863281 270.976562 410.382812 269.078125 409.480469 262.835938 C 409.277344 261.40625 409.574219 263.449219 412.695312 263.953125 C 415.640625 264.425781 420.464844 258.242188 420.9375 249.917969 C 421.59375 238.515625 415.320312 242.59375 413.074219 243.5625 " fill-opacity="1" fill-rule="nonzero"/><path fill="#282444" d="M 353.753906 219.132812 C 353.425781 218.160156 353.191406 217.121094 353.070312 216.03125 C 352.402344 209.726562 355.777344 204.199219 360.609375 203.683594 C 363.082031 203.417969 365.457031 204.535156 367.273438 206.511719 C 368.882812 205.546875 370.925781 204.847656 373.203125 204.609375 C 375.679688 204.34375 378.007812 204.660156 379.867188 205.398438 C 380.550781 200.738281 383.476562 197.128906 387.335938 196.71875 C 391.933594 196.226562 396.183594 200.449219 397.167969 206.285156 C 398.851562 205.195312 401.007812 204.414062 403.410156 204.160156 C 409.023438 203.5625 413.917969 205.996094 414.707031 209.652344 C 417.804688 211.203125 420.21875 214.871094 420.699219 219.371094 C 420.976562 222.023438 420.542969 224.539062 419.582031 226.59375 C 421.601562 226.953125 423.203125 228.464844 423.410156 230.433594 C 423.667969 232.859375 421.703125 235.066406 419.019531 235.351562 C 418.667969 235.386719 418.328125 235.386719 417.988281 235.355469 C 417.828125 236.359375 417.550781 237.371094 417.105469 238.367188 C 414.960938 243.203125 410.179688 245.773438 406.433594 244.109375 C 403.429688 242.78125 402.003906 239.144531 402.65625 235.269531 C 400.707031 236.28125 398.535156 236.691406 396.347656 236.320312 C 392.773438 235.714844 389.941406 233.144531 388.414062 229.644531 C 387.671875 230.269531 386.773438 230.585938 385.867188 230.445312 C 384.832031 230.28125 383.988281 229.5625 383.484375 228.546875 C 382.042969 229.5625 380.335938 230.242188 378.457031 230.445312 C 375.011719 230.8125 371.785156 229.488281 369.582031 227.148438 C 369.59375 227.269531 369.621094 227.390625 369.640625 227.515625 C 370.28125 233.566406 366.113281 238.96875 360.332031 239.578125 C 354.546875 240.195312 349.335938 235.789062 348.695312 229.738281 C 348.222656 225.316406 350.328125 221.25 353.753906 219.132812 " fill-opacity="1" fill-rule="nonzero"/><path fill="#282444" d="M 378.890625 282.722656 C 377.527344 282.648438 374.546875 282.144531 372.113281 280.503906 C 371.492188 280.082031 371.507812 279.164062 372.144531 278.765625 C 373.921875 277.65625 375.984375 276.800781 379.328125 276.703125 C 383.34375 276.589844 385.90625 277.449219 388.628906 278.738281 C 389.367188 279.085938 389.417969 280.140625 388.703125 280.542969 C 386.117188 282.011719 382.519531 282.917969 378.890625 282.722656 Z M 398.8125 270.9375 C 397.457031 273.011719 394.921875 273.976562 392.519531 273.371094 C 388.949219 272.476562 384.71875 271.410156 379.257812 271.667969 C 374.628906 271.890625 371.59375 272.972656 368.976562 273.824219 C 367.242188 274.390625 365.355469 273.527344 364.644531 271.84375 C 363.371094 267.671875 359.90625 261.714844 359.90625 261.757812 C 359.875 264.539062 360.171875 269.171875 362.410156 280.714844 C 364.859375 293.292969 374.773438 302.238281 383.355469 302.164062 C 396.902344 302.050781 411.445312 288.875 411.984375 274.636719 C 412.519531 260.398438 410.675781 261.097656 412.082031 259.320312 C 413.359375 257.707031 407.695312 260.101562 402.257812 266.324219 C 400.945312 267.824219 399.753906 269.507812 398.8125 270.9375 " fill-opacity="1" fill-rule="nonzero"/><path fill="#512618" d="M 393.933594 337.511719 C 346.769531 406.535156 359.390625 441.410156 349.597656 432.859375 C 323.839844 410.355469 294.285156 417.414062 274.957031 405.371094 C 268.09375 401.089844 257.058594 391.792969 251.191406 390.355469 C 241.910156 388.082031 225 393.859375 220.894531 396.972656 C 218.332031 398.910156 220.382812 400.542969 220.101562 400.609375 C 217.058594 401.375 216.140625 406.183594 220.90625 410.058594 C 225.195312 413.550781 234.953125 420.371094 253.625 420.957031 C 258.25 421.097656 261.710938 419.261719 267.792969 422.171875 C 276.867188 426.535156 285.890625 435.945312 295.382812 441.488281 C 320.230469 455.996094 346.160156 470.367188 359.171875 466.660156 C 374.5 462.292969 426.929688 412.738281 431.554688 337.742188 C 433.042969 313.597656 412.355469 310.550781 393.933594 337.511719 " fill-opacity="1" fill-rule="nonzero"/><path fill="#ffffff" d="M 271.34375 199.617188 L 115.421875 199.617188 C 105.246094 199.617188 97.003906 207.855469 97.003906 218.015625 L 97.003906 283.914062 C 97.003906 294.074219 105.246094 302.320312 115.421875 302.320312 L 229.320312 302.320312 L 250.316406 321.496094 L 250.316406 302.320312 L 271.34375 302.320312 C 281.515625 302.320312 289.757812 294.074219 289.757812 283.914062 L 289.757812 218.015625 C 289.757812 207.855469 281.515625 199.617188 271.34375 199.617188 " fill-opacity="1" fill-rule="nonzero"/><g clip-path="url(#c763bc6579)"><g clip-path="url(#e24cfca0ea)"><g clip-path="url(#75397bb8d9)"><g clip-path="url(#b3e032a75f)"><path fill="url(#2e7819b1e2)" d="M 96.089844 200.925781 L 131.40625 233.507812 L 164.007812 198.214844 L 128.691406 165.632812 Z M 96.089844 200.925781 " fill-rule="nonzero"/></g></g></g></g><path fill="#e1d7f7" d="M 230.164062 281.734375 C 230.164062 284.167969 228.199219 286.140625 225.761719 286.140625 C 223.328125 286.140625 221.359375 284.167969 221.359375 281.734375 C 221.359375 279.308594 223.328125 277.335938 225.761719 277.335938 C 228.199219 277.335938 230.164062 279.308594 230.164062 281.734375 " fill-opacity="1" fill-rule="nonzero"/><path fill="#e1d7f7" d="M 248.429688 281.734375 C 248.429688 284.167969 246.460938 286.140625 244.027344 286.140625 C 241.597656 286.140625 239.625 284.167969 239.625 281.734375 C 239.625 279.308594 241.597656 277.335938 244.027344 277.335938 C 246.460938 277.335938 248.429688 279.308594 248.429688 281.734375 " fill-opacity="1" fill-rule="nonzero"/><path fill="#e1d7f7" d="M 266.699219 281.734375 C 266.699219 284.167969 264.726562 286.140625 262.292969 286.140625 C 259.863281 286.140625 257.890625 284.167969 257.890625 281.734375 C 257.890625 279.308594 259.863281 277.335938 262.292969 277.335938 C 264.726562 277.335938 266.699219 279.308594 266.699219 281.734375 " fill-opacity="1" fill-rule="nonzero"/><path fill="#e1d7f7" d="M 266.484375 222.820312 L 165.015625 222.820312 C 162.570312 222.820312 160.589844 220.839844 160.589844 218.394531 C 160.589844 215.953125 162.570312 213.976562 165.015625 213.976562 L 266.484375 213.976562 C 268.925781 213.976562 270.90625 215.953125 270.90625 218.394531 C 270.90625 220.839844 268.925781 222.820312 266.484375 222.820312 " fill-opacity="1" fill-rule="nonzero"/><path fill="#e1d7f7" d="M 266.484375 243.941406 L 118.882812 243.941406 C 116.433594 243.941406 114.457031 241.960938 114.457031 239.515625 C 114.457031 237.078125 116.433594 235.097656 118.882812 235.097656 L 266.484375 235.097656 C 268.925781 235.097656 270.90625 237.078125 270.90625 239.515625 C 270.90625 241.960938 268.925781 243.941406 266.484375 243.941406 " fill-opacity="1" fill-rule="nonzero"/><path fill="#e1d7f7" d="M 266.484375 265.0625 L 118.882812 265.0625 C 116.433594 265.0625 114.457031 263.082031 114.457031 260.636719 C 114.457031 258.199219 116.433594 256.21875 118.882812 256.21875 L 266.484375 256.21875 C 268.925781 256.21875 270.90625 258.199219 270.90625 260.636719 C 270.90625 263.082031 268.925781 265.0625 266.484375 265.0625 " fill-opacity="1" fill-rule="nonzero"/><path fill="#e1d7f7" d="M 208.335938 286.183594 L 118.882812 286.183594 C 116.433594 286.183594 114.457031 284.203125 114.457031 281.765625 C 114.457031 279.320312 116.433594 277.339844 118.882812 277.339844 L 208.335938 277.339844 C 210.785156 277.339844 212.765625 279.320312 212.765625 281.765625 C 212.765625 284.203125 210.785156 286.183594 208.335938 286.183594 " fill-opacity="1" fill-rule="nonzero"/><path fill="#e1d7f7" d="M 341.523438 50.648438 C 341.523438 77.511719 319.734375 99.296875 292.855469 99.296875 C 265.96875 99.296875 244.179688 77.511719 244.179688 50.648438 C 244.179688 23.78125 265.96875 2.003906 292.855469 2.003906 C 319.734375 2.003906 341.523438 23.78125 341.523438 50.648438 " fill-opacity="1" fill-rule="nonzero"/><path fill="#ffffff" d="M 292.808594 54.074219 C 293.152344 54.074219 293.496094 54.003906 293.820312 53.851562 C 294.664062 53.460938 295.207031 52.609375 295.207031 51.675781 L 295.207031 11.332031 C 295.207031 10.007812 294.136719 8.9375 292.808594 8.9375 C 291.484375 8.9375 290.40625 10.007812 290.40625 11.332031 L 290.40625 46.496094 L 269.261719 28.570312 C 268.246094 27.710938 266.738281 27.839844 265.878906 28.847656 C 265.023438 29.855469 265.148438 31.367188 266.15625 32.226562 L 291.257812 53.503906 C 291.699219 53.875 292.253906 54.074219 292.808594 54.074219 " fill-opacity="1" fill-rule="nonzero"/><path fill="#815ae2" d="M 264.140625 398.617188 C 261.441406 404.914062 255.777344 409.238281 251.601562 411.371094 C 253.035156 404.613281 254.195312 396.335938 254.648438 387.664062 C 255.808594 387.058594 257.390625 386.660156 259.566406 387.054688 C 261.617188 387.425781 263.113281 388.453125 264.007812 390.117188 C 265.453125 392.800781 265.09375 396.40625 264.140625 398.617188 Z M 267.417969 388.28125 C 265.957031 385.566406 263.476562 383.824219 260.253906 383.246094 C 258.097656 382.855469 256.292969 383.023438 254.8125 383.453125 C 254.863281 381.554688 254.875 379.648438 254.84375 377.738281 C 254.84375 377.445312 254.605469 377.214844 254.3125 377.214844 L 215.257812 377.214844 C 214.964844 377.214844 214.734375 377.445312 214.726562 377.738281 C 214.421875 397.9375 218.660156 418.273438 222.257812 425.25 C 222.433594 425.597656 222.785156 425.8125 223.175781 425.8125 L 246.390625 425.8125 C 246.785156 425.8125 247.144531 425.597656 247.320312 425.25 C 248.367188 423.207031 249.476562 420.03125 250.503906 416.046875 C 255.5 414.246094 263.917969 408.980469 267.703125 400.144531 C 269.054688 397.003906 269.480469 392.113281 267.417969 388.28125 " fill-opacity="1" fill-rule="nonzero"/><path fill="#512618" d="M 266.6875 406.132812 C 263.660156 406.625 257.871094 399.785156 256.023438 393.015625 C 254.710938 388.179688 254.097656 383.660156 254.660156 380.585938 C 255.5 375.976562 258.773438 374.113281 259.972656 374.503906 C 262.285156 375.253906 261.230469 377.445312 260.324219 379.613281 C 258.773438 383.308594 264.242188 390.222656 266.699219 396.53125 C 268.1875 400.363281 268.597656 405.816406 266.6875 406.132812 " fill-opacity="1" fill-rule="nonzero"/><path fill="#512618" d="M 222.261719 415.460938 C 224.8125 414.816406 228.445312 413.480469 231.300781 411.609375 C 232.828125 410.609375 233.550781 408.667969 232.839844 406.984375 C 232.675781 406.59375 232.453125 406.253906 232.195312 405.96875 C 231.957031 405.699219 232.070312 405.273438 232.402344 405.160156 C 232.945312 404.984375 233.464844 404.816406 233.957031 404.65625 C 235.808594 404.050781 236.996094 402.140625 236.542969 400.25 C 236.175781 398.746094 234.957031 397.710938 233.558594 397.476562 C 233.582031 397.464844 233.746094 397.410156 233.796875 397.382812 C 235.613281 396.640625 236.527344 394.597656 235.859375 392.738281 C 235.171875 390.820312 233.058594 389.824219 231.148438 390.519531 C 231.0625 390.550781 230.953125 390.582031 230.851562 390.621094 C 230.867188 390.480469 230.867188 390.335938 230.859375 390.191406 C 230.757812 388.15625 229.023438 386.597656 226.992188 386.699219 C 226.496094 386.726562 226.007812 386.75 225.535156 386.769531 C 222.421875 386.90625 219.476562 387.039062 215.597656 388.0625 C 214.378906 388.382812 213.472656 389.269531 213.074219 390.367188 C 212.820312 391.050781 212.769531 391.8125 212.972656 392.5625 C 213.394531 394.175781 214.832031 395.253906 216.417969 395.304688 C 216.449219 395.304688 216.453125 395.339844 216.429688 395.347656 C 215.394531 395.75 214.636719 396.5625 214.285156 397.535156 C 214 398.316406 213.976562 399.199219 214.285156 400.042969 C 214.777344 401.40625 216 402.300781 217.351562 402.445312 C 217.382812 402.453125 217.386719 402.484375 217.363281 402.496094 C 216.582031 402.9375 215.992188 403.628906 215.703125 404.441406 C 215.433594 405.1875 215.394531 406.023438 215.660156 406.832031 C 216.09375 408.1875 217.242188 409.105469 218.554688 409.328125 C 218.578125 409.335938 218.585938 409.359375 218.566406 409.378906 C 218.207031 409.742188 217.925781 410.191406 217.746094 410.675781 C 217.480469 411.414062 217.445312 412.246094 217.710938 413.058594 C 218.308594 414.9375 220.351562 415.953125 222.261719 415.460938 " fill-opacity="1" fill-rule="nonzero"/><path fill="#815ae2" d="M 263.996094 390.121094 C 265.4375 392.808594 265.078125 396.414062 264.128906 398.625 C 262.652344 402.078125 260.28125 404.929688 257.75 407.160156 L 263.226562 407.160156 C 264.984375 405.144531 266.550781 402.808594 267.691406 400.152344 C 268.933594 397.246094 269.394531 392.84375 267.824219 389.171875 L 263.34375 389.171875 C 263.585938 389.460938 263.804688 389.777344 263.996094 390.121094 " fill-opacity="1" fill-rule="nonzero"/><path fill="#282444" d="M 89.113281 411.015625 C 82.441406 401.066406 87.46875 383.429688 103.4375 375.308594 C 107.195312 373.398438 112.261719 369.75 113.949219 364.695312 C 114.4375 363.238281 114 361.933594 114.378906 361.960938 C 114.847656 361.992188 114.984375 365.128906 115.023438 365.980469 C 115.304688 372.5 113.863281 377.855469 113.25 380.9375 C 111.21875 391.164062 114.535156 404.621094 105.253906 413.753906 C 98.570312 420.3125 92.425781 415.953125 89.113281 411.015625 " fill-opacity="1" fill-rule="nonzero"/><path fill="#282444" d="M 74.8125 371.066406 C 75.15625 371.101562 74.382812 371.554688 74.734375 372.699219 C 75.246094 374.320312 76.59375 375.292969 77.414062 376.1875 C 80.355469 379.402344 81.011719 383.53125 80.800781 387.757812 C 80.652344 390.847656 78.292969 395.316406 76.085938 393.765625 C 65.519531 386.351562 72.824219 375.820312 73.683594 373.96875 C 74.730469 371.710938 74.355469 371.023438 74.8125 371.066406 " fill-opacity="1" fill-rule="nonzero"/><path fill="#3a4a1d" d="M 84.449219 427.265625 C 89.40625 422.367188 82.863281 394.761719 60.46875 381.160156 C 58.15625 379.746094 54.359375 377.082031 53.652344 377.628906 C 53.296875 377.902344 55.734375 378.34375 54.996094 380.679688 C 46.914062 406.402344 73.941406 406.402344 75.335938 422.847656 C 75.75 427.703125 81.652344 430.027344 84.449219 427.265625 " fill-opacity="1" fill-rule="nonzero"/><path fill="#3a4a1d" d="M 139.738281 383.78125 C 138.261719 385.148438 133.714844 384.621094 129.472656 386.480469 C 125.503906 388.210938 123.800781 392.160156 122.046875 397.832031 C 119.035156 407.5625 110.449219 422.4375 98.421875 422.546875 C 78.96875 422.714844 96.574219 400.625 113.96875 388.671875 C 121.472656 383.515625 131.8125 383.414062 136.453125 383.359375 C 139.203125 383.320312 140.425781 383.144531 139.738281 383.78125 " fill-opacity="1" fill-rule="nonzero"/><path fill="#3a4a1d" d="M 87.507812 362.125 C 88.980469 361.40625 87 367.292969 94.425781 374.832031 C 110.253906 390.902344 106.988281 423.378906 90.402344 425.003906 C 83.8125 425.660156 59.296875 399.433594 85.734375 368.71875 C 88.855469 365.085938 86.953125 362.390625 87.507812 362.125 " fill-opacity="1" fill-rule="nonzero"/><path fill="#516123" d="M 105.203125 386.617188 C 105.296875 385.484375 109.238281 397.117188 109.710938 402.808594 C 110.726562 415.164062 109.132812 421.960938 104.332031 427.097656 C 98.75 433.085938 89.265625 435.542969 83.640625 430.152344 C 78.613281 425.335938 78.328125 416.804688 82.675781 410.851562 C 85.773438 406.609375 86.835938 406.441406 95.390625 397.347656 C 100.675781 391.722656 104.769531 391.84375 105.203125 386.617188 " fill-opacity="1" fill-rule="nonzero"/><g clip-path="url(#740caafd6b)"><g clip-path="url(#1651cbea21)"><g clip-path="url(#a7bf810386)"><path fill="url(#381b18cbd6)" d="M 66.484375 422.402344 L 66.484375 471.21875 L 118.433594 471.21875 L 118.433594 422.402344 Z M 66.484375 422.402344 " fill-rule="nonzero"/></g></g></g><path fill="#282444" d="M 71.714844 782.1875 L 76.628906 782.1875 C 77.71875 782.1875 78.683594 781.457031 78.972656 780.398438 L 146.882812 492.226562 C 147.589844 489.679688 145.671875 487.160156 143.023438 487.160156 L 132.808594 487.160156 C 130.964844 487.160156 129.363281 488.414062 128.921875 490.195312 L 69.34375 779.164062 C 68.964844 780.699219 70.125 782.1875 71.714844 782.1875 " fill-opacity="1" fill-rule="nonzero"/><path fill="#282444" d="M 345.484375 494.128906 L 60.382812 494.128906 C 54.71875 494.128906 50.125 489.542969 50.125 483.886719 L 50.125 481.933594 C 50.125 476.273438 54.71875 471.683594 60.382812 471.683594 L 345.484375 471.683594 C 351.148438 471.683594 355.738281 476.273438 355.738281 481.933594 L 355.738281 483.886719 C 355.738281 489.542969 351.148438 494.128906 345.484375 494.128906 " fill-opacity="1" fill-rule="nonzero"/><path fill="#282444" d="M 408.828125 487.027344 C 369.625 478.453125 243.832031 515.722656 211.597656 532.035156 C 205.53125 535.105469 202.144531 539.007812 201.136719 540.382812 C 194.101562 549.929688 195.820312 559.203125 195.269531 564.78125 C 190.597656 612.457031 186.894531 684.949219 182.542969 706.035156 C 192.550781 710.515625 213.882812 714.441406 225.308594 715.828125 C 235.128906 688.84375 246.410156 651.746094 253.683594 615.433594 C 261.636719 575.71875 230.078125 572.074219 276.128906 573.707031 C 303.632812 574.683594 332.996094 576.582031 359.515625 573.5625 C 369.921875 572.375 382.304688 575.636719 394.089844 573.976562 C 424.597656 569.671875 436.082031 548.890625 426.351562 504.863281 C 424.566406 496.800781 419.292969 489.3125 408.828125 487.027344 " fill-opacity="1" fill-rule="nonzero"/><path fill="#7f4730" d="M 152.265625 747.660156 C 188.0625 746.878906 206.9375 721.273438 210.488281 707.179688 C 219.066406 673.15625 204.050781 636.789062 200.390625 571.953125 C 200.089844 566.519531 199.253906 557.527344 206.085938 548.253906 C 207.070312 546.917969 210.363281 543.128906 216.246094 540.148438 C 247.558594 524.308594 369.726562 494.734375 407.808594 503.0625 C 417.960938 505.28125 423.089844 509.792969 424.816406 517.621094 C 434.269531 560.382812 423.121094 576.695312 393.484375 580.878906 C 382.039062 582.492188 370.019531 579.328125 359.90625 580.476562 C 334.152344 583.40625 305.632812 581.574219 278.921875 580.621094 C 234.195312 579.03125 258.734375 585.839844 257.125 621.144531 C 254.359375 681.710938 242.097656 681.445312 236.753906 728.15625 C 235.625 738.066406 245.0625 742.070312 238.003906 753.671875 C 234.53125 759.394531 231.25 759.8125 225.859375 759.820312 C 203.171875 759.851562 188.300781 764.640625 177.246094 767.660156 C 161.957031 771.832031 139.554688 758.777344 138.671875 751.410156 C 137.6875 743.265625 150.875 747.691406 152.265625 747.660156 " fill-opacity="1" fill-rule="nonzero"/><path fill="#313147" d="M 412.789062 502.378906 C 373.585938 493.816406 247.792969 523.90625 215.558594 540.21875 C 209.496094 543.28125 206.105469 547.183594 205.097656 548.5625 C 198.0625 558.105469 199.136719 567.359375 199.230469 572.960938 C 200.351562 638.683594 200.988281 696.953125 198.109375 715.867188 C 208.117188 720.355469 234.972656 724.273438 246.398438 725.667969 C 250.308594 697.816406 252.617188 685.59375 258.746094 633.554688 C 263.507812 593.140625 234.039062 580.25 280.089844 581.886719 C 307.59375 582.863281 336.957031 584.757812 363.476562 581.738281 C 373.882812 580.550781 386.265625 583.816406 398.050781 582.152344 C 428.5625 577.847656 440.046875 561.484375 430.308594 517.457031 C 428.53125 509.394531 423.253906 504.667969 412.789062 502.378906 " fill-opacity="1" fill-rule="nonzero"/><path fill="#282444" d="M 336.511719 782.1875 L 331.601562 782.1875 C 330.503906 782.1875 329.539062 781.457031 329.25 780.398438 L 261.339844 492.226562 C 260.640625 489.679688 262.550781 487.160156 265.199219 487.160156 L 275.417969 487.160156 C 277.257812 487.160156 278.859375 488.414062 279.300781 490.195312 L 338.882812 779.164062 C 339.257812 780.699219 338.097656 782.1875 336.511719 782.1875 " fill-opacity="1" fill-rule="nonzero"/><g clip-path="url(#8c4ac093b6)"><g clip-path="url(#bfc21bdcac)"><g clip-path="url(#8ec0475c32)"><path fill="url(#014543df5a)" d="M 360.039062 298.902344 L 360.039062 562.246094 L 461.757812 562.246094 L 461.757812 298.902344 Z M 360.039062 298.902344 " fill-rule="nonzero"/></g></g></g><path fill="#7f4730" d="M 387.941406 339.339844 C 370.710938 391.597656 407.617188 455.195312 377.832031 444.226562 C 344.015625 431.78125 326.394531 450.089844 304.425781 444.070312 C 296.625 441.933594 283.570312 438.089844 277.5625 437.515625 C 274.414062 437.21875 257.839844 441.0625 256.980469 445.878906 C 256.917969 446.226562 250.234375 449.320312 247.1875 453.476562 C 245.296875 456.066406 247.71875 457.042969 247.472656 457.195312 C 244.773438 458.792969 243.933594 460.179688 243.308594 460.855469 C 240.835938 463.539062 242.058594 464.726562 244.429688 465.125 C 245 465.210938 244.808594 465.652344 250.945312 466.011719 C 253.835938 466.183594 263.179688 464.078125 267.386719 464.894531 C 279.394531 467.226562 279.6875 467.789062 288.640625 466.144531 C 293.195312 465.304688 299.875 461.75 303.644531 462.941406 C 341.625 474.957031 393.382812 490.769531 410.488281 476.425781 C 422.1875 466.617188 445.136719 405.703125 427.945312 335.304688 C 427.0625 331.671875 421.714844 322.269531 411.773438 320.421875 C 403.183594 318.820312 392.683594 324.953125 387.941406 339.339844 " fill-opacity="1" fill-rule="nonzero"/><path fill="#282444" d="M 307.894531 472.113281 C 309.566406 471.546875 310.765625 469.964844 310.757812 468.105469 C 310.757812 465.765625 308.859375 463.875 306.519531 463.875 L 194.417969 463.925781 L 151.027344 359.570312 C 149.847656 357.554688 147.257812 356.875 145.238281 358.050781 C 143.21875 359.238281 142.1875 361.605469 143.726562 363.84375 L 188.339844 470.296875 C 189.699219 471.097656 191.09375 471.898438 192.597656 471.898438 L 306.535156 472.339844 C 307.007812 472.339844 307.46875 472.257812 307.894531 472.113281 " fill-opacity="1" fill-rule="nonzero"/><g clip-path="url(#e5448abfd6)"><g clip-path="url(#8f314935a6)"><g clip-path="url(#5397850e02)"><g clip-path="url(#f59434f551)"><path fill="url(#ed02125a4c)" d="M 411.457031 452.917969 L 490.660156 367.421875 L 407.113281 290.113281 L 327.90625 375.609375 Z M 411.457031 452.917969 " fill-rule="nonzero"/></g></g></g></g><path fill="#9c74e7" d="M 200.699219 730.476562 C 199.46875 729.917969 198.195312 729.425781 196.890625 728.976562 C 185.664062 735.457031 168.535156 743.316406 151.972656 747.683594 C 150.628906 748.039062 137.398438 743.292969 138.382812 751.429688 C 139.273438 758.796875 157.863281 770.824219 176.960938 767.683594 C 188.433594 765.800781 203.355469 761.839844 225.566406 759.84375 C 230.941406 759.359375 234.238281 759.414062 237.722656 753.699219 C 243.554688 744.097656 238.113281 739.699219 236.691406 732.859375 C 229.035156 737.195312 218.742188 738.582031 200.699219 730.476562 " fill-opacity="1" fill-rule="nonzero"/><path fill="#9c74e7" d="M 318.214844 561.804688 C 318.871094 563.992188 320.597656 577.171875 332.449219 581.492188 C 337.191406 583.210938 348.113281 583.4375 349.824219 583.4375 C 403.652344 583.425781 409.644531 592.433594 434.234375 590.074219 C 439.605469 589.558594 451.070312 584.296875 456.535156 570.859375 C 458.417969 566.21875 458.742188 563.550781 458.570312 554.570312 C 458.167969 533.59375 458.765625 523.652344 458.878906 517.601562 C 458.90625 516.246094 457.878906 511.394531 451.96875 510.441406 C 444.355469 509.21875 428.492188 508.3125 395.625 507.339844 C 375.285156 506.734375 363.230469 510.050781 350.574219 514.53125 C 341.410156 517.777344 329.402344 524.195312 322.621094 535.832031 C 316.46875 546.382812 316.285156 555.296875 318.214844 561.804688 Z M 317.808594 534.515625 C 325.535156 520.273438 339.226562 512.421875 349.671875 508.449219 C 364.101562 502.96875 375.402344 500.847656 392.367188 501.222656 C 441.503906 502.292969 454.886719 503.742188 467.546875 505.796875 C 470.277344 506.246094 473.09375 507.007812 473.152344 512.25 C 473.226562 519.746094 472.3125 532.410156 472.792969 559.03125 C 472.996094 570.027344 472.621094 573.289062 470.472656 578.96875 C 464.246094 595.421875 451.179688 601.863281 445.054688 602.492188 C 417.027344 605.375 410.191406 594.34375 348.839844 594.347656 C 346.890625 594.347656 334.433594 594.066406 329.03125 591.953125 C 315.519531 586.679688 313.539062 570.542969 312.804688 567.855469 C 310.59375 559.882812 310.804688 547.433594 317.808594 534.515625 " fill-opacity="1" fill-rule="nonzero"/></svg>