<svg xmlns="http://www.w3.org/2000/svg" xmlns:xlink="http://www.w3.org/1999/xlink" width="380" zoomAndPan="magnify" viewBox="0 0 285 65.249999" height="87" preserveAspectRatio="xMidYMid meet" version="1.0"><defs><g/><clipPath id="f6d1dbc3d7"><path d="M 3.082031 12 L 28 12 L 28 49 L 3.082031 49 Z M 3.082031 12 " clip-rule="nonzero"/></clipPath><clipPath id="c657addd2b"><path d="M 22 7.421875 L 31 7.421875 L 31 15 L 22 15 Z M 22 7.421875 " clip-rule="nonzero"/></clipPath><clipPath id="c954cd8569"><path d="M 3.207031 49.171875 L 31.257812 49.171875 L 31.257812 55.433594 L 3.207031 55.433594 Z M 3.207031 49.171875 " clip-rule="nonzero"/></clipPath><clipPath id="c4a7264a98"><path d="M 140.390625 0 L 283.378906 0 L 283.378906 64.507812 L 140.390625 64.507812 Z M 140.390625 0 " clip-rule="nonzero"/></clipPath><clipPath id="53f64dd105"><path d="M 110 20 L 139 20 L 139 64.507812 L 110 64.507812 Z M 110 20 " clip-rule="nonzero"/></clipPath></defs><g clip-path="url(#f6d1dbc3d7)"><path fill="#3c4551" d="M 21.859375 15.648438 L 24.464844 17.230469 L 9.597656 41.714844 L 6.992188 40.136719 Z M 4.742188 48.503906 L 9.789062 45.1875 C 10.160156 44.941406 10.472656 44.617188 10.703125 44.234375 L 27.5625 16.472656 L 21.101562 12.550781 L 4.246094 40.316406 C 4.015625 40.695312 3.871094 41.121094 3.828125 41.566406 L 3.214844 47.574219 C 3.128906 48.402344 4.046875 48.960938 4.742188 48.503906 " fill-opacity="1" fill-rule="nonzero"/></g><g clip-path="url(#c657addd2b)"><path fill="#0a66c2" d="M 29.941406 12.550781 C 30.5 11.632812 30.207031 10.441406 29.292969 9.886719 L 26.148438 7.976562 C 25.234375 7.421875 24.039062 7.714844 23.484375 8.628906 L 22.273438 10.625 L 28.734375 14.542969 L 29.941406 12.550781 " fill-opacity="1" fill-rule="nonzero"/></g><g clip-path="url(#c954cd8569)"><path fill="#0a66c2" d="M 31.382812 50.371094 C 31.082031 49.714844 30.363281 49.347656 29.65625 49.503906 C 28.242188 49.8125 26.628906 49.667969 24.941406 49.519531 C 22.273438 49.285156 19.511719 49.042969 17 50.5 C 16.539062 50.765625 16.140625 51.0625 15.753906 51.347656 C 15.4375 51.585938 15.136719 51.808594 14.835938 51.984375 C 14.363281 52.265625 13.910156 52.382812 13.652344 52.292969 C 13.488281 52.234375 13.253906 52.054688 13.007812 51.863281 C 12.792969 51.699219 12.550781 51.511719 12.269531 51.339844 C 10.332031 50.144531 8.289062 50.652344 6.648438 51.058594 C 5.996094 51.222656 5.363281 51.378906 4.789062 51.425781 C 4.140625 51.476562 3.585938 51.914062 3.402344 52.539062 C 3.097656 53.578125 3.925781 54.609375 5.003906 54.527344 C 5.84375 54.464844 6.648438 54.265625 7.398438 54.078125 C 8.894531 53.707031 9.851562 53.503906 10.640625 53.988281 C 10.777344 54.074219 10.9375 54.199219 11.105469 54.328125 C 11.496094 54.628906 11.984375 55.003906 12.625 55.230469 C 13.011719 55.363281 13.421875 55.433594 13.847656 55.433594 C 14.679688 55.433594 15.5625 55.171875 16.421875 54.664062 C 16.859375 54.40625 17.242188 54.121094 17.613281 53.84375 C 17.941406 53.597656 18.253906 53.367188 18.5625 53.191406 C 20.21875 52.226562 22.378906 52.417969 24.667969 52.621094 C 26.539062 52.785156 28.453125 52.953125 30.316406 52.546875 C 31.285156 52.332031 31.800781 51.273438 31.382812 50.371094 " fill-opacity="1" fill-rule="nonzero"/></g><g clip-path="url(#c4a7264a98)"><path fill="#0a66c2" d="M 283.253906 78.246094 L 140.265625 78.246094 L 140.265625 -14.371094 L 283.253906 -14.371094 Z M 283.253906 78.246094 " fill-opacity="1" fill-rule="nonzero"/></g><g fill="#0a66c2" fill-opacity="1"><g transform="translate(24.453464, 52.280891)"><g><path d="M 4.859375 0 L 4.859375 -37.34375 L 20.796875 -37.34375 C 23.085938 -37.34375 25.03125 -36.976562 26.625 -36.25 C 28.21875 -35.53125 29.421875 -34.5 30.234375 -33.15625 C 31.054688 -31.820312 31.46875 -30.242188 31.46875 -28.421875 C 31.46875 -26.773438 31.066406 -25.320312 30.265625 -24.0625 C 29.460938 -22.800781 28.316406 -21.785156 26.828125 -21.015625 L 26.828125 -20.484375 C 29.171875 -19.867188 30.976562 -18.753906 32.25 -17.140625 C 33.53125 -15.523438 34.171875 -13.539062 34.171875 -11.1875 C 34.171875 -7.613281 33.09375 -4.851562 30.9375 -2.90625 C 28.789062 -0.96875 25.597656 0 21.359375 0 Z M 19.265625 -22.453125 C 22.703125 -22.453125 24.421875 -24 24.421875 -27.09375 C 24.421875 -28.6875 23.992188 -29.867188 23.140625 -30.640625 C 22.285156 -31.410156 20.992188 -31.796875 19.265625 -31.796875 L 12.234375 -31.796875 L 12.234375 -22.453125 Z M 20.609375 -5.84375 C 24.679688 -5.84375 26.71875 -7.691406 26.71875 -11.390625 C 26.71875 -15.097656 24.679688 -16.953125 20.609375 -16.953125 L 12.234375 -16.953125 L 12.234375 -5.84375 Z M 20.609375 -5.84375 "/></g></g></g><g fill="#0a66c2" fill-opacity="1"><g transform="translate(60.97387, 52.280891)"><g><path d="M 11.703125 0.53125 C 9.160156 0.53125 7.21875 -0.148438 5.875 -1.515625 C 4.539062 -2.890625 3.875 -4.972656 3.875 -7.765625 L 3.875 -39.484375 L 10.953125 -39.484375 L 10.953125 -8.046875 C 10.953125 -6.328125 11.671875 -5.46875 13.109375 -5.46875 C 13.515625 -5.46875 13.945312 -5.535156 14.40625 -5.671875 L 14.765625 -5.5625 L 15.40625 -0.125 C 15.007812 0.0703125 14.488281 0.226562 13.84375 0.34375 C 13.195312 0.46875 12.484375 0.53125 11.703125 0.53125 Z M 11.703125 0.53125 "/></g></g></g><g fill="#0a66c2" fill-opacity="1"><g transform="translate(77.165434, 52.280891)"><g><path d="M 16.375 0.53125 C 13.613281 0.53125 11.191406 -0.03125 9.109375 -1.15625 C 7.023438 -2.289062 5.40625 -3.953125 4.25 -6.140625 C 3.101562 -8.328125 2.53125 -10.972656 2.53125 -14.078125 C 2.53125 -17.171875 3.101562 -19.816406 4.25 -22.015625 C 5.40625 -24.210938 7.023438 -25.875 9.109375 -27 C 11.191406 -28.132812 13.613281 -28.703125 16.375 -28.703125 C 19.132812 -28.703125 21.554688 -28.132812 23.640625 -27 C 25.722656 -25.875 27.34375 -24.210938 28.5 -22.015625 C 29.664062 -19.816406 30.25 -17.171875 30.25 -14.078125 C 30.25 -10.972656 29.664062 -8.328125 28.5 -6.140625 C 27.34375 -3.953125 25.722656 -2.289062 23.640625 -1.15625 C 21.554688 -0.03125 19.132812 0.53125 16.375 0.53125 Z M 16.375 -5.46875 C 20.75 -5.46875 22.9375 -8.335938 22.9375 -14.078125 C 22.9375 -17.054688 22.375 -19.238281 21.25 -20.625 C 20.125 -22.007812 18.5 -22.703125 16.375 -22.703125 C 12 -22.703125 9.8125 -19.828125 9.8125 -14.078125 C 9.8125 -8.335938 12 -5.46875 16.375 -5.46875 Z M 16.375 -5.46875 "/></g></g></g><g clip-path="url(#53f64dd105)"><g fill="#0a66c2" fill-opacity="1"><g transform="translate(109.906106, 52.280891)"><g><path d="M 14.609375 11.953125 C 9.960938 11.953125 6.53125 11.269531 4.3125 9.90625 C 2.101562 8.550781 1 6.65625 1 4.21875 C 1 2.738281 1.46875 1.523438 2.40625 0.578125 C 3.351562 -0.367188 4.710938 -1.003906 6.484375 -1.328125 L 6.484375 -1.859375 C 5.535156 -2.441406 4.851562 -3.085938 4.4375 -3.796875 C 4.019531 -4.503906 3.8125 -5.328125 3.8125 -6.265625 C 3.8125 -8.523438 5.28125 -10.046875 8.21875 -10.828125 L 8.21875 -11.359375 C 6.707031 -12.234375 5.566406 -13.3125 4.796875 -14.59375 C 4.035156 -15.882812 3.65625 -17.441406 3.65625 -19.265625 C 3.65625 -21.128906 4.082031 -22.769531 4.9375 -24.1875 C 5.800781 -25.613281 7.0625 -26.722656 8.71875 -27.515625 C 10.382812 -28.304688 12.375 -28.703125 14.6875 -28.703125 C 17.039062 -28.703125 18.914062 -28.296875 20.3125 -27.484375 C 21.175781 -28.742188 21.675781 -30.203125 21.8125 -31.859375 L 22.34375 -32.1875 L 27.4375 -30.9375 C 27.28125 -29.59375 26.882812 -28.460938 26.25 -27.546875 C 25.625 -26.640625 24.648438 -25.828125 23.328125 -25.109375 L 23.328125 -24.546875 C 24.910156 -23.148438 25.703125 -21.203125 25.703125 -18.703125 C 25.703125 -16.960938 25.265625 -15.398438 24.390625 -14.015625 C 23.523438 -12.640625 22.257812 -11.550781 20.59375 -10.75 C 18.9375 -9.945312 16.96875 -9.546875 14.6875 -9.546875 L 13.609375 -9.578125 C 12.929688 -9.609375 12.457031 -9.625 12.1875 -9.625 C 11.539062 -9.625 11.03125 -9.445312 10.65625 -9.09375 C 10.289062 -8.75 10.109375 -8.304688 10.109375 -7.765625 C 10.109375 -7.171875 10.347656 -6.707031 10.828125 -6.375 C 11.304688 -6.039062 12.003906 -5.859375 12.921875 -5.828125 L 19.234375 -5.59375 C 25.460938 -5.40625 28.578125 -2.722656 28.578125 2.453125 C 28.578125 4.273438 28.113281 5.894531 27.1875 7.3125 C 26.257812 8.738281 24.753906 9.867188 22.671875 10.703125 C 20.597656 11.535156 17.910156 11.953125 14.609375 11.953125 Z M 14.6875 -14.515625 C 16.050781 -14.515625 17.113281 -14.910156 17.875 -15.703125 C 18.644531 -16.503906 19.03125 -17.644531 19.03125 -19.125 C 19.03125 -20.613281 18.644531 -21.753906 17.875 -22.546875 C 17.113281 -23.335938 16.050781 -23.734375 14.6875 -23.734375 C 13.3125 -23.734375 12.25 -23.335938 11.5 -22.546875 C 10.75 -21.753906 10.375 -20.613281 10.375 -19.125 C 10.375 -17.632812 10.75 -16.492188 11.5 -15.703125 C 12.25 -14.910156 13.3125 -14.515625 14.6875 -14.515625 Z M 14.609375 6.8125 C 17.023438 6.8125 18.78125 6.472656 19.875 5.796875 C 20.976562 5.117188 21.53125 4.234375 21.53125 3.140625 C 21.53125 2.253906 21.25 1.601562 20.6875 1.1875 C 20.125 0.769531 19.234375 0.546875 18.015625 0.515625 L 12.4375 0.25 C 12.25 0.25 12.070312 0.238281 11.90625 0.21875 C 11.75 0.207031 11.59375 0.203125 11.4375 0.203125 C 10.25 0.203125 9.34375 0.457031 8.71875 0.96875 C 8.101562 1.476562 7.796875 2.1875 7.796875 3.09375 C 7.796875 4.28125 8.363281 5.195312 9.5 5.84375 C 10.644531 6.488281 12.347656 6.8125 14.609375 6.8125 Z M 14.609375 6.8125 "/></g></g></g></g><g fill="#ffffff" fill-opacity="1"><g transform="translate(152.697, 47.370547)"><g><path d="M 15.921875 -30.828125 C 18.128906 -30.828125 20.015625 -30.421875 21.578125 -29.609375 C 23.148438 -28.804688 24.335938 -27.675781 25.140625 -26.21875 C 25.941406 -24.769531 26.34375 -23.082031 26.34375 -21.15625 C 26.34375 -19.226562 25.941406 -17.539062 25.140625 -16.09375 C 24.335938 -14.644531 23.148438 -13.515625 21.578125 -12.703125 C 20.015625 -11.898438 18.128906 -11.5 15.921875 -11.5 L 10.09375 -11.5 L 10.09375 0 L 4 0 L 4 -30.828125 Z M 15.125 -16.328125 C 18.507812 -16.328125 20.203125 -17.9375 20.203125 -21.15625 C 20.203125 -24.382812 18.507812 -26 15.125 -26 L 10.09375 -26 L 10.09375 -16.328125 Z M 15.125 -16.328125 "/></g></g></g><g fill="#ffffff" fill-opacity="1"><g transform="translate(180.864853, 47.370547)"><g><path d="M 22.984375 -10.3125 L 8.03125 -10.3125 C 8.195312 -8.289062 8.769531 -6.816406 9.75 -5.890625 C 10.738281 -4.972656 12.085938 -4.515625 13.796875 -4.515625 C 15.128906 -4.515625 16.207031 -4.765625 17.03125 -5.265625 C 17.863281 -5.765625 18.535156 -6.519531 19.046875 -7.53125 L 19.484375 -7.53125 L 23.359375 -5.046875 C 22.597656 -3.410156 21.453125 -2.085938 19.921875 -1.078125 C 18.390625 -0.0664062 16.347656 0.4375 13.796875 0.4375 C 11.390625 0.4375 9.3125 -0.015625 7.5625 -0.921875 C 5.8125 -1.835938 4.460938 -3.195312 3.515625 -5 C 2.566406 -6.8125 2.09375 -9.019531 2.09375 -11.625 C 2.09375 -14.257812 2.585938 -16.484375 3.578125 -18.296875 C 4.578125 -20.117188 5.925781 -21.472656 7.625 -22.359375 C 9.332031 -23.253906 11.25 -23.703125 13.375 -23.703125 C 16.65625 -23.703125 19.171875 -22.828125 20.921875 -21.078125 C 22.679688 -19.335938 23.5625 -16.78125 23.5625 -13.40625 C 23.5625 -12.1875 23.515625 -11.238281 23.421875 -10.5625 Z M 17.96875 -14.09375 C 17.90625 -15.863281 17.488281 -17.148438 16.71875 -17.953125 C 15.957031 -18.765625 14.84375 -19.171875 13.375 -19.171875 C 10.414062 -19.171875 8.675781 -17.476562 8.15625 -14.09375 Z M 17.96875 -14.09375 "/></g></g></g><g fill="#ffffff" fill-opacity="1"><g transform="translate(206.144242, 47.370547)"><g><path d="M 11.5 0.4375 C 9.65625 0.4375 8.023438 -0.00390625 6.609375 -0.890625 C 5.191406 -1.785156 4.082031 -3.132812 3.28125 -4.9375 C 2.488281 -6.75 2.09375 -8.976562 2.09375 -11.625 C 2.09375 -14.28125 2.503906 -16.507812 3.328125 -18.3125 C 4.148438 -20.125 5.285156 -21.472656 6.734375 -22.359375 C 8.191406 -23.253906 9.875 -23.703125 11.78125 -23.703125 C 13.226562 -23.703125 14.484375 -23.453125 15.546875 -22.953125 C 16.609375 -22.453125 17.503906 -21.675781 18.234375 -20.625 L 18.6875 -20.734375 L 18.6875 -32.59375 L 24.53125 -32.59375 L 24.53125 0 L 18.6875 0 L 18.6875 -3.015625 L 18.234375 -3.09375 C 17.585938 -2 16.703125 -1.132812 15.578125 -0.5 C 14.453125 0.125 13.09375 0.4375 11.5 0.4375 Z M 13.390625 -4.515625 C 15.035156 -4.515625 16.332031 -5.097656 17.28125 -6.265625 C 18.238281 -7.441406 18.71875 -9.226562 18.71875 -11.625 C 18.71875 -14.007812 18.238281 -15.789062 17.28125 -16.96875 C 16.332031 -18.15625 15.035156 -18.75 13.390625 -18.75 C 11.671875 -18.75 10.359375 -18.175781 9.453125 -17.03125 C 8.546875 -15.882812 8.09375 -14.082031 8.09375 -11.625 C 8.09375 -9.175781 8.546875 -7.378906 9.453125 -6.234375 C 10.359375 -5.085938 11.671875 -4.515625 13.390625 -4.515625 Z M 13.390625 -4.515625 "/></g></g></g><g fill="#ffffff" fill-opacity="1"><g transform="translate(234.016923, 47.370547)"><g><path d="M 6.265625 -26.046875 C 5.210938 -26.046875 4.351562 -26.363281 3.6875 -27 C 3.03125 -27.644531 2.703125 -28.472656 2.703125 -29.484375 C 2.703125 -30.484375 3.03125 -31.300781 3.6875 -31.9375 C 4.351562 -32.570312 5.210938 -32.890625 6.265625 -32.890625 C 6.960938 -32.890625 7.585938 -32.742188 8.140625 -32.453125 C 8.691406 -32.160156 9.117188 -31.753906 9.421875 -31.234375 C 9.722656 -30.722656 9.875 -30.140625 9.875 -29.484375 C 9.875 -28.816406 9.722656 -28.222656 9.421875 -27.703125 C 9.117188 -27.179688 8.691406 -26.773438 8.140625 -26.484375 C 7.585938 -26.191406 6.960938 -26.046875 6.265625 -26.046875 Z M 3.359375 0 L 3.359375 -23.265625 L 9.1875 -23.265625 L 9.1875 0 Z M 3.359375 0 "/></g></g></g><g fill="#ffffff" fill-opacity="1"><g transform="translate(246.540654, 47.370547)"><g><path d="M 9.0625 0.4375 C 7.570312 0.4375 6.28125 0.164062 5.1875 -0.375 C 4.09375 -0.925781 3.25 -1.734375 2.65625 -2.796875 C 2.0625 -3.859375 1.765625 -5.132812 1.765625 -6.625 C 1.765625 -8 2.0625 -9.15625 2.65625 -10.09375 C 3.25 -11.03125 4.160156 -11.796875 5.390625 -12.390625 C 6.628906 -12.984375 8.25 -13.441406 10.25 -13.765625 C 11.644531 -13.992188 12.703125 -14.238281 13.421875 -14.5 C 14.148438 -14.769531 14.640625 -15.070312 14.890625 -15.40625 C 15.140625 -15.75 15.265625 -16.179688 15.265625 -16.703125 C 15.265625 -17.441406 15.003906 -18.007812 14.484375 -18.40625 C 13.960938 -18.800781 13.097656 -19 11.890625 -19 C 10.597656 -19 9.367188 -18.707031 8.203125 -18.125 C 7.035156 -17.550781 6.023438 -16.796875 5.171875 -15.859375 L 4.75 -15.859375 L 2.296875 -19.546875 C 3.472656 -20.859375 4.910156 -21.878906 6.609375 -22.609375 C 8.316406 -23.335938 10.175781 -23.703125 12.1875 -23.703125 C 15.269531 -23.703125 17.5 -23.046875 18.875 -21.734375 C 20.25 -20.429688 20.9375 -18.578125 20.9375 -16.171875 L 20.9375 -6.078125 C 20.9375 -5.035156 21.394531 -4.515625 22.3125 -4.515625 C 22.664062 -4.515625 23.007812 -4.578125 23.34375 -4.703125 L 23.640625 -4.625 L 24.0625 -0.546875 C 23.738281 -0.335938 23.285156 -0.164062 22.703125 -0.03125 C 22.128906 0.101562 21.5 0.171875 20.8125 0.171875 C 19.414062 0.171875 18.328125 -0.09375 17.546875 -0.625 C 16.773438 -1.164062 16.21875 -2.003906 15.875 -3.140625 L 15.4375 -3.1875 C 14.300781 -0.769531 12.175781 0.4375 9.0625 0.4375 Z M 10.921875 -3.921875 C 12.273438 -3.921875 13.351562 -4.375 14.15625 -5.28125 C 14.96875 -6.1875 15.375 -7.445312 15.375 -9.0625 L 15.375 -11.421875 L 14.96875 -11.515625 C 14.613281 -11.234375 14.148438 -10.992188 13.578125 -10.796875 C 13.015625 -10.609375 12.203125 -10.425781 11.140625 -10.25 C 9.867188 -10.039062 8.957031 -9.675781 8.40625 -9.15625 C 7.851562 -8.644531 7.578125 -7.921875 7.578125 -6.984375 C 7.578125 -5.984375 7.867188 -5.222656 8.453125 -4.703125 C 9.046875 -4.179688 9.867188 -3.921875 10.921875 -3.921875 Z M 10.921875 -3.921875 "/></g></g></g></svg>