<svg xmlns="http://www.w3.org/2000/svg" xmlns:xlink="http://www.w3.org/1999/xlink" width="500" zoomAndPan="magnify" viewBox="0 0 375 374.999991" height="500" preserveAspectRatio="xMidYMid meet" version="1.0"><defs><g/><clipPath id="5d9751acc4"><path d="M 81.769531 119.039062 L 293.269531 119.039062 L 293.269531 256.289062 L 81.769531 256.289062 Z M 81.769531 119.039062 " clip-rule="nonzero"/></clipPath></defs><rect x="-37.5" width="450" fill="#ffffff" y="-37.499999" height="449.999989" fill-opacity="1"/><rect x="-37.5" width="450" fill="#737373" y="-37.499999" height="449.999989" fill-opacity="1"/><g clip-path="url(#5d9751acc4)"><path fill="#000000" d="M 262.167969 256.246094 C 260.941406 256.246094 259.738281 255.882812 258.71875 255.199219 L 222.960938 231.308594 L 87.992188 231.308594 C 84.554688 231.308594 81.769531 228.515625 81.769531 225.074219 L 81.769531 125.320312 C 81.769531 121.875 84.554688 119.085938 87.992188 119.085938 L 287.050781 119.085938 C 290.484375 119.085938 293.269531 121.875 293.269531 125.320312 L 293.269531 225.074219 C 293.269531 228.515625 290.484375 231.308594 287.050781 231.308594 L 268.386719 231.308594 L 268.386719 250.011719 C 268.386719 253.453125 265.601562 256.246094 262.167969 256.246094 Z M 94.210938 218.839844 L 224.84375 218.839844 C 226.070312 218.839844 227.273438 219.203125 228.292969 219.886719 L 255.945312 238.375 L 255.945312 225.074219 C 255.945312 221.628906 258.730469 218.839844 262.167969 218.839844 L 280.828125 218.839844 L 280.828125 131.554688 L 94.210938 131.554688 Z M 94.210938 218.839844 " fill-opacity="1" fill-rule="nonzero"/></g><path fill="#000000" d="M 119.09375 181.429688 L 106.652344 181.429688 C 103.21875 181.429688 100.433594 178.640625 100.433594 175.195312 L 100.433594 150.257812 C 100.433594 146.8125 103.21875 144.023438 106.652344 144.023438 L 119.09375 144.023438 C 129.402344 144.023438 137.753906 152.398438 137.753906 162.726562 C 137.753906 173.054688 129.402344 181.429688 119.09375 181.429688 Z M 112.875 168.960938 L 119.09375 168.960938 C 122.53125 168.960938 125.316406 166.167969 125.316406 162.726562 C 125.316406 159.285156 122.53125 156.492188 119.09375 156.492188 L 112.875 156.492188 Z M 112.875 168.960938 " fill-opacity="1" fill-rule="nonzero"/><path fill="#000000" d="M 119.09375 206.367188 L 106.652344 206.367188 C 103.21875 206.367188 100.433594 203.578125 100.433594 200.132812 L 100.433594 175.195312 C 100.433594 171.753906 103.21875 168.960938 106.652344 168.960938 L 119.09375 168.960938 C 129.402344 168.960938 137.753906 177.335938 137.753906 187.664062 C 137.753906 197.996094 129.402344 206.367188 119.09375 206.367188 Z M 112.875 193.898438 L 119.09375 193.898438 C 122.53125 193.898438 125.316406 191.109375 125.316406 187.664062 C 125.316406 184.222656 122.53125 181.429688 119.09375 181.429688 L 112.875 181.429688 Z M 112.875 193.898438 " fill-opacity="1" fill-rule="nonzero"/><path fill="#000000" d="M 168.859375 206.367188 L 150.195312 206.367188 C 146.761719 206.367188 143.976562 203.578125 143.976562 200.132812 L 143.976562 150.257812 C 143.976562 146.8125 146.761719 144.023438 150.195312 144.023438 C 153.632812 144.023438 156.417969 146.8125 156.417969 150.257812 L 156.417969 193.898438 L 168.859375 193.898438 C 172.292969 193.898438 175.078125 196.691406 175.078125 200.132812 C 175.078125 203.578125 172.292969 206.367188 168.859375 206.367188 Z M 168.859375 206.367188 " fill-opacity="1" fill-rule="nonzero"/><path fill="#000000" d="M 199.960938 206.367188 C 189.660156 206.355469 181.3125 197.988281 181.300781 187.664062 L 181.300781 162.726562 C 181.300781 152.398438 189.65625 144.023438 199.960938 144.023438 C 210.269531 144.023438 218.625 152.398438 218.625 162.726562 L 218.625 187.664062 C 218.613281 197.988281 210.261719 206.355469 199.960938 206.367188 Z M 199.960938 156.492188 C 196.527344 156.492188 193.742188 159.285156 193.742188 162.726562 L 193.742188 187.664062 C 193.742188 191.109375 196.527344 193.898438 199.960938 193.898438 C 203.398438 193.898438 206.183594 191.109375 206.183594 187.664062 L 206.183594 162.726562 C 206.183594 159.285156 203.398438 156.492188 199.960938 156.492188 Z M 199.960938 156.492188 " fill-opacity="1" fill-rule="nonzero"/><path fill="#000000" d="M 249.726562 206.367188 C 235.992188 206.351562 224.859375 195.195312 224.84375 181.429688 L 224.84375 168.960938 C 224.84375 155.1875 235.984375 144.023438 249.726562 144.023438 C 256.808594 144.023438 263.550781 147.046875 268.273438 152.335938 C 270.621094 154.847656 270.492188 158.792969 267.988281 161.148438 C 265.480469 163.503906 261.542969 163.375 259.195312 160.863281 C 259.128906 160.792969 259.066406 160.722656 259.003906 160.648438 C 254.425781 155.511719 246.558594 155.070312 241.4375 159.660156 C 238.792969 162.027344 237.285156 165.410156 237.285156 168.960938 L 237.285156 181.429688 C 237.277344 188.316406 242.839844 193.90625 249.710938 193.914062 C 254.167969 193.917969 258.285156 191.535156 260.507812 187.664062 L 255.945312 187.664062 C 252.511719 187.664062 249.726562 184.875 249.726562 181.429688 C 249.726562 177.988281 252.511719 175.195312 255.945312 175.195312 L 268.386719 175.195312 C 271.824219 175.195312 274.609375 177.988281 274.609375 181.429688 C 274.59375 195.195312 263.460938 206.351562 249.726562 206.367188 Z M 249.726562 206.367188 " fill-opacity="1" fill-rule="nonzero"/><g fill="#000000" fill-opacity="1"><g transform="translate(186.799358, 166.534034)"><g><path d="M 0.21875 0.09375 C 0.21875 0.0195312 0.21875 -0.0351562 0.21875 -0.078125 C 0.226562 -0.128906 0.234375 -0.164062 0.234375 -0.1875 C 0.234375 -0.21875 0.234375 -0.238281 0.234375 -0.25 C 0.234375 -0.257812 0.234375 -0.265625 0.234375 -0.265625 C 0.234375 -0.273438 0.234375 -0.285156 0.234375 -0.296875 C 0.234375 -0.316406 0.234375 -0.34375 0.234375 -0.375 C 0.234375 -0.40625 0.234375 -0.445312 0.234375 -0.5 C 0.242188 -0.550781 0.25 -0.617188 0.25 -0.703125 C 0.257812 -0.753906 0.265625 -0.789062 0.265625 -0.8125 C 0.273438 -0.832031 0.296875 -0.847656 0.328125 -0.859375 C 0.472656 -0.859375 0.625 -0.859375 0.78125 -0.859375 C 0.9375 -0.859375 1.082031 -0.859375 1.21875 -0.859375 C 1.226562 -0.859375 1.238281 -0.851562 1.25 -0.84375 C 1.257812 -0.832031 1.265625 -0.816406 1.265625 -0.796875 L 1.203125 -0.03125 C 1.191406 0.0195312 1.179688 0.0546875 1.171875 0.078125 C 1.171875 0.0976562 1.15625 0.109375 1.125 0.109375 C 0.988281 0.109375 0.847656 0.109375 0.703125 0.109375 C 0.554688 0.117188 0.40625 0.125 0.25 0.125 C 0.238281 0.125 0.226562 0.117188 0.21875 0.109375 Z M 0.21875 0.09375 "/></g></g></g></svg>