<svg xmlns="http://www.w3.org/2000/svg" xmlns:xlink="http://www.w3.org/1999/xlink" width="1920" zoomAndPan="magnify" viewBox="0 0 1440 809.999993" height="1080" preserveAspectRatio="xMidYMid meet" version="1.0"><defs><g/></defs><rect x="-144" width="1728" fill="#ffffff" y="-80.999999" height="971.999992" fill-opacity="1"/><rect x="-144" width="1728" fill="#ffffff" y="-80.999999" height="971.999992" fill-opacity="1"/><path fill="#7b7b7b" d="M 24.941406 802.324219 C 34.363281 722.558594 29.605469 597.824219 10.664062 428.121094 L 22.101562 167.707031 C 40.019531 -50.019531 61.976562 -156.042969 87.964844 -150.367188 C 99.609375 -161.285156 122.652344 -167.351562 157.101562 -168.570312 C 459.539062 -167.539062 749.785156 -175.347656 1027.832031 -191.992188 C 1133.40625 -190.265625 1215.65625 -183.386719 1274.578125 -171.351562 C 1363.707031 -146.351562 1402.535156 -133.265625 1391.0625 -132.101562 C 1406.195312 -121.027344 1415.0625 -96.183594 1417.667969 -57.574219 C 1445.355469 162.277344 1453.363281 412.25 1441.695312 692.339844 C 1436.40625 791.011719 1411.9375 851.761719 1368.285156 874.597656 C 1347.339844 892.835938 1318.972656 905.445312 1283.179688 912.433594 L 967.925781 950.894531 C 753.527344 976.609375 597.128906 984.214844 498.738281 973.71875 C 438.222656 967.488281 340.824219 960.464844 206.535156 952.644531 C 182.195312 949.96875 162.054688 945.683594 146.117188 939.800781 C 99.929688 927.417969 62.890625 882.429688 35.003906 804.84375 Z M 24.941406 802.324219 " fill-opacity="1" fill-rule="nonzero"/><path fill="#545454" d="M 57.253906 825.335938 C 61.839844 816.453125 68.492188 807.097656 77.210938 797.269531 C 136.84375 738.175781 220.632812 643.3125 328.578125 512.679688 C 347.226562 491.199219 369.035156 470.6875 394.007812 451.136719 C 410.386719 437.40625 422.878906 432.546875 431.480469 436.558594 C 440.4375 438.515625 459.867188 453.953125 489.761719 482.875 C 620.996094 612.15625 701.53125 695.074219 731.359375 731.632812 L 823.367188 816.058594 L 872.480469 870.433594 C 874.945312 873.511719 874.351562 876.992188 870.703125 880.871094 C 804.800781 911.441406 639.195312 926.421875 373.886719 925.808594 C 239.351562 927.101562 147.421875 906.488281 98.101562 863.964844 Z M 57.253906 825.335938 " fill-opacity="1" fill-rule="nonzero"/><path fill="#756a62" d="M 560.480469 644.777344 C 724.492188 461.886719 819.894531 344.21875 846.6875 291.769531 C 877.105469 258.1875 899.089844 243.003906 912.652344 246.210938 C 1195.730469 507.09375 1364.566406 697.566406 1419.152344 817.632812 C 1407.578125 888.984375 1348.925781 924.550781 1243.195312 924.324219 C 1173.726562 934.617188 943.167969 916.582031 551.507812 870.222656 Z M 560.480469 644.777344 " fill-opacity="1" fill-rule="nonzero"/><path fill="#7b7b7b" d="M 1446.964844 -55.039062 L 1463.941406 720.429688 C 1464.316406 737.695312 1450.625 751.996094 1433.359375 752.375 C 1416.09375 752.753906 1401.792969 739.0625 1401.414062 721.796875 L 1384.441406 -53.671875 C 1384.0625 -70.9375 1397.753906 -85.242188 1415.019531 -85.617188 C 1432.285156 -85.996094 1446.589844 -72.304688 1446.964844 -55.039062 Z M 1446.964844 -55.039062 " fill-opacity="1" fill-rule="nonzero"/><path fill="#7b7b7b" d="M 41.4375 18.042969 L 42.363281 732.085938 C 42.382812 749.355469 28.402344 763.375 11.132812 763.398438 C -6.136719 763.417969 -20.15625 749.4375 -20.175781 732.167969 L -21.101562 18.125 C -21.125 0.855469 -7.144531 -13.164062 10.125 -13.1875 C 27.398438 -13.210938 41.414062 0.773438 41.4375 18.042969 Z M 41.4375 18.042969 " fill-opacity="1" fill-rule="nonzero"/><path fill="#7b7b7b" d="M -22.449219 12.011719 L -22.453125 12.011719 C -22.660156 10.488281 -22.8125 8.914062 -22.898438 7.285156 C -23.671875 -7.035156 -18.921875 -30.480469 -8.644531 -63.046875 C -8.570312 -63.277344 -8.496094 -63.511719 -8.414062 -63.742188 C -1.160156 -84.988281 8.855469 -104.324219 21.628906 -121.753906 L 21.265625 -121.253906 C 35.339844 -141.269531 54.234375 -161.082031 77.949219 -180.695312 C 78.484375 -181.136719 79.035156 -181.5625 79.597656 -181.96875 C 97.878906 -195.136719 116.296875 -201.726562 134.855469 -201.738281 C 152.125 -201.746094 166.132812 -187.753906 166.144531 -170.484375 C 166.152344 -153.214844 152.160156 -139.207031 134.890625 -139.195312 C 129.773438 -139.195312 123.527344 -136.535156 116.152344 -131.226562 L 117.804688 -132.5 C 98.40625 -116.457031 83.28125 -100.71875 72.429688 -85.285156 C 72.3125 -85.117188 72.191406 -84.949219 72.070312 -84.785156 C 63.066406 -72.496094 55.964844 -58.746094 50.769531 -43.53125 L 50.996094 -44.226562 C 43 -18.886719 39.183594 -2.839844 39.550781 3.914062 L 39.550781 3.910156 C 39.542969 3.808594 39.527344 3.660156 39.5 3.464844 C 41.863281 20.570312 29.90625 36.355469 12.800781 38.714844 C -4.308594 41.074219 -20.089844 29.121094 -22.449219 12.011719 Z M -22.449219 12.011719 " fill-opacity="1" fill-rule="nonzero"/><path fill="#7b7b7b" d="M 151.125 939.800781 C 109.585938 932.703125 74.472656 912.667969 45.78125 879.6875 C 45.339844 879.179688 44.910156 878.652344 44.5 878.117188 C 4.113281 825.105469 -17.289062 779.375 -19.695312 740.929688 C -20.777344 723.691406 -7.679688 708.84375 9.558594 707.765625 C 26.792969 706.6875 41.640625 719.78125 42.722656 737.019531 C 44.339844 762.855469 61.515625 797.253906 94.246094 840.214844 L 92.964844 838.640625 C 111.886719 860.390625 134.785156 873.5625 161.65625 878.152344 C 178.679688 881.0625 190.121094 897.21875 187.214844 914.242188 C 184.304688 931.265625 168.148438 942.707031 151.125 939.800781 Z M 151.125 939.800781 " fill-opacity="1" fill-rule="nonzero"/><path fill="#7b7b7b" d="M 1313.589844 873.15625 C 1329.863281 871.128906 1344.960938 859.464844 1358.886719 838.164062 L 1358.835938 838.246094 C 1383.902344 799.652344 1396.535156 764.351562 1396.738281 732.335938 C 1396.847656 715.066406 1410.9375 701.15625 1428.207031 701.265625 C 1445.476562 701.375 1459.386719 715.460938 1459.277344 732.730469 C 1458.996094 776.953125 1443 823.480469 1411.285156 872.308594 L 1411.234375 872.390625 C 1386.734375 909.855469 1356.765625 930.800781 1321.324219 935.21875 C 1304.1875 937.351562 1288.5625 925.191406 1286.425781 908.054688 C 1284.289062 890.917969 1296.453125 875.292969 1313.589844 873.15625 Z M 1313.589844 873.15625 " fill-opacity="1" fill-rule="nonzero"/><path fill="#545454" d="M 426.535156 123.511719 L 427.351562 140.921875 C 425.828125 176.367188 412.886719 206.054688 388.535156 229.992188 C 363.992188 253.929688 333.25 266.019531 296.308594 266.253906 C 260.851562 264.734375 231.152344 251.800781 207.210938 227.457031 C 183.265625 202.929688 171.175781 172.199219 170.941406 135.269531 C 172.46875 99.824219 185.40625 70.136719 209.761719 46.199219 C 234.300781 22.261719 265.042969 10.175781 301.984375 9.9375 C 337.441406 11.460938 367.140625 24.390625 391.082031 48.734375 C 398.761719 56.609375 405.351562 65.394531 410.851562 75.089844 L 418.109375 90.179688 C 422.347656 100.648438 425.15625 111.757812 426.535156 123.511719 " fill-opacity="1" fill-rule="nonzero"/><path fill="#737373" d="M 956.921875 37.792969 L 955.609375 38.972656 C 952.21875 42.160156 949.71875 45.738281 948.113281 49.703125 L 957.121094 37.789062 Z M 956.921875 37.792969 " fill-opacity="1" fill-rule="nonzero"/><path fill="#756a62" d="M 569.328125 631.222656 C 544.546875 674.023438 506.089844 734.191406 453.957031 811.730469 C 440.789062 834.496094 433.480469 852.816406 432.03125 866.6875 C 434.851562 876.195312 454.34375 880.980469 490.503906 881.050781 C 503.640625 881.617188 534.898438 879.828125 584.277344 875.6875 L 628.207031 876.175781 C 633.1875 876.238281 637.261719 873.382812 640.425781 867.601562 Z M 569.328125 631.222656 " fill-opacity="1" fill-rule="nonzero"/><g fill="#545454" fill-opacity="1"><g transform="translate(550.591851, 594.256502)"><g><path d="M 1.84375 0.78125 C 1.875 0.132812 1.894531 -0.375 1.90625 -0.75 C 1.914062 -1.125 1.925781 -1.410156 1.9375 -1.609375 C 1.945312 -1.816406 1.953125 -1.960938 1.953125 -2.046875 C 1.953125 -2.128906 1.953125 -2.207031 1.953125 -2.28125 C 1.953125 -2.363281 1.953125 -2.457031 1.953125 -2.5625 C 1.960938 -2.675781 1.972656 -2.859375 1.984375 -3.109375 C 2.003906 -3.359375 2.023438 -3.703125 2.046875 -4.140625 C 2.078125 -4.585938 2.113281 -5.179688 2.15625 -5.921875 C 2.175781 -6.378906 2.21875 -6.691406 2.28125 -6.859375 C 2.34375 -7.023438 2.5 -7.128906 2.75 -7.171875 C 3.945312 -7.171875 5.203125 -7.175781 6.515625 -7.1875 C 7.828125 -7.195312 9.066406 -7.207031 10.234375 -7.21875 C 10.359375 -7.21875 10.460938 -7.179688 10.546875 -7.109375 C 10.628906 -7.046875 10.671875 -6.921875 10.671875 -6.734375 L 10.09375 -0.28125 C 10.039062 0.164062 9.988281 0.472656 9.9375 0.640625 C 9.882812 0.816406 9.726562 0.914062 9.46875 0.9375 C 8.3125 0.957031 7.117188 0.972656 5.890625 0.984375 C 4.671875 0.992188 3.398438 1 2.078125 1 C 1.992188 1 1.929688 0.992188 1.890625 0.984375 C 1.859375 0.972656 1.84375 0.929688 1.84375 0.859375 Z M 1.84375 0.78125 "/></g></g></g></svg>